<svg width="243" height="213" viewBox="0 0 243 213" fill="none" xmlns="http://www.w3.org/2000/svg">
<path d="M161.19 191.884C125.566 203.308 53.6144 185.457 25.3448 152.858C6.02552 130.591 7.17035 91.8284 36.949 71.9277C66.7276 52.027 101.236 69.0046 121.2 53.1548C140.91 37.5441 172.805 14.2473 205.111 40.4518C227.66 58.7283 236.054 90.8632 225.182 129.063C218.853 151.211 206.519 177.379 161.19 191.884Z" fill="#EAF5FF"/>
<mask id="mask0_1307_1468" style="mask-type:alpha" maskUnits="userSpaceOnUse" x="12" y="28" width="218" height="168">
<path d="M161.19 191.884C125.566 203.308 53.6144 185.457 25.3448 152.858C6.02552 130.591 7.17035 91.8284 36.949 71.9277C66.7276 52.027 101.236 69.0046 121.2 53.1548C140.91 37.5441 172.805 14.2473 205.111 40.4518C227.66 58.7283 236.054 90.8632 225.182 129.063C218.853 151.211 206.519 177.379 161.19 191.884Z" fill="#EAF5FF"/>
</mask>
<g mask="url(#mask0_1307_1468)">
<path fill-rule="evenodd" clip-rule="evenodd" d="M58.6222 148.415C58.6222 148.415 54.7365 144.15 52.7311 140.574C51.6656 138.629 50.0362 133.799 51.2896 131.289C51.2896 131.227 51.9163 132.858 52.7937 134.05C53.7338 135.43 54.9872 136.371 55.0499 136.308C55.3633 135.869 54.2978 134.489 53.4204 132.607C52.8564 131.415 52.1043 128.968 52.1043 128.968C52.1043 128.968 53.7338 125.894 54.8619 124.577C59.8756 118.868 70.5924 117.802 77.6116 117.175C79.6171 116.986 80.8079 119.37 82.8133 119.496C83.064 119.496 84.5055 119.496 84.5681 119.809C84.6935 120.186 78.9904 120.813 77.9876 121.378C75.4181 122.821 74.3527 124.577 74.3527 124.577C74.3527 124.577 68.1482 126.585 68.3989 128.278C68.5243 129.094 74.1647 125.957 74.1647 125.957C74.1647 125.957 72.0339 133.673 68.3362 138.504C64.764 143.271 59.4369 147.349 58.6222 148.415Z" fill="#AAD5FB"/>
<path fill-rule="evenodd" clip-rule="evenodd" d="M54.4883 124.954C54.4883 124.954 57.8099 119.559 63.3249 116.673C72.851 111.717 76.6113 111.78 82.001 111.466C93.0939 110.839 100.05 115.168 100.05 115.168C100.05 115.168 96.3528 114.666 94.598 114.729C91.6524 114.854 89.0202 115.293 89.0202 115.293C89.0202 115.293 93.3446 115.481 96.1021 115.983C99.6744 116.611 102.996 117.426 102.996 117.426C102.996 117.426 107.446 122.946 109.326 126.209C111.394 129.722 112.835 134.427 112.271 134.991C111.833 135.493 105.189 134.615 104.688 134.489C100.74 133.674 93.0312 130.161 93.0312 130.161C93.0312 130.161 91.4644 127.965 91.6524 126.397C91.8404 124.891 92.0911 122.256 92.0911 122.256C92.0911 122.256 90.8377 123.887 90.399 125.393C89.8976 127.15 89.8976 128.53 89.8976 128.53C89.8976 128.53 82.8158 122.57 75.1699 121.19C63.3876 119.308 54.4883 124.954 54.4883 124.954Z" fill="#D4EAFF"/>
<path fill-rule="evenodd" clip-rule="evenodd" d="M94.4983 120.202C90.0118 117.52 78.892 111.866 64.8557 116.217C64.6918 116.268 64.5178 116.176 64.4671 116.012C64.4164 115.848 64.5081 115.673 64.6721 115.623C78.9625 111.192 90.2787 116.954 94.8173 119.667L94.8184 119.668C103.056 124.641 108.04 129.121 112.268 134.869C112.37 135.007 112.341 135.202 112.202 135.304C112.064 135.406 111.87 135.376 111.768 135.238C107.598 129.569 102.681 125.141 94.4983 120.202Z" fill="#AAD5FB"/>
<path fill-rule="evenodd" clip-rule="evenodd" d="M44.5238 127.212C44.5238 127.212 41.5155 121.441 40.6381 116.046C39.0713 106.447 38.6953 93.8382 38.6953 93.8382C38.6953 93.8382 42.8316 99.4841 44.5864 98.5432C46.3412 97.5394 39.0087 90.9525 39.0087 90.9525C39.0087 90.9525 41.7035 79.0961 43.9597 73.0738C50.0388 56.6379 56.5567 47.1025 56.5567 47.1025C56.5567 47.1025 60.129 50.3646 62.9492 58.1435C64.9547 63.7266 65.5814 75.2694 65.5814 75.2694C65.5814 75.2694 59.2516 78.7824 59.5649 81.6054C59.8783 84.3656 65.8321 78.1551 65.8321 78.1551C65.8321 78.1551 65.3934 85.6203 64.2653 92.96C62.2598 105.883 58.4368 110.839 58.4368 110.839C58.4368 110.839 50.2895 111.466 50.1642 113.662C50.0388 115.795 57.6848 113.034 57.6848 113.034C57.6848 113.034 57.7474 112.156 53.3604 117.112C48.9734 122.005 44.5238 127.212 44.5238 127.212Z" fill="#D4EAFF"/>
<path fill-rule="evenodd" clip-rule="evenodd" d="M69.6549 123.14C69.7903 123.246 69.8146 123.441 69.7092 123.577C63.6054 131.432 59.6132 140.475 57.6768 153.975C57.5472 155.199 57.1004 156.854 56.6009 158.542L56.6006 158.543C56.2884 159.584 55.859 161.137 55.4584 162.586C55.2569 163.314 55.0626 164.017 54.8942 164.615C54.7687 165.06 54.6575 165.448 54.5686 165.744C54.4832 166.029 54.4107 166.255 54.3638 166.356C54.3569 166.371 54.3468 166.392 54.3337 166.413L54.3331 166.414C54.3271 166.424 54.2894 166.486 54.2164 166.528C54.168 166.556 54.07 166.593 53.9543 166.552C53.8469 166.514 53.7968 166.433 53.7784 166.396C53.7462 166.333 53.7434 166.271 53.7428 166.258L53.7427 166.257C53.7392 166.189 53.7533 166.09 53.7685 165.995C53.8032 165.779 53.8761 165.407 53.9936 164.85C54.0212 164.72 54.1266 164.626 54.2508 164.607C54.2657 164.554 54.2809 164.5 54.2963 164.446C54.4627 163.855 54.6557 163.157 54.8566 162.43C55.2584 160.977 55.6914 159.411 56.0054 158.364C56.5077 156.667 56.9376 155.063 57.0595 153.904L57.0607 153.892L57.0609 153.892C59.0105 140.295 63.04 131.146 69.2189 123.194C69.3244 123.059 69.5196 123.034 69.6549 123.14Z" fill="#AAD5FB"/>
<path fill-rule="evenodd" clip-rule="evenodd" d="M3.34703 105.131C-3.1708 103.939 -2.54409 99.3594 -12.3835 102.12C-19.7161 104.127 -21.7216 110.651 -28.7408 112.031C-32.3757 112.784 -41.5884 111.843 -34.4439 115.105C-27.2366 118.367 -16.4572 118.367 -11.6941 115.733C-6.93109 113.161 -3.6095 108.456 -1.79203 109.397C-0.538602 110.087 -5.17629 114.352 -5.17629 114.352C-5.17629 114.352 -1.47867 114.164 11.8077 108.456C18.1375 105.695 9.86486 106.323 3.34703 105.131Z" fill="#AAD5FB"/>
<path fill-rule="evenodd" clip-rule="evenodd" d="M5.41317 164.099C5.47584 164.099 4.22242 160.021 3.84639 157.324C3.21967 152.933 4.4731 146.597 7.9827 144.276C11.0536 142.205 20.517 144.276 20.517 144.276C20.517 144.276 27.4735 146.22 22.4598 147.977C17.4461 149.733 13.1218 149.921 10.1135 155.818C8.23339 159.52 6.97996 163.283 5.41317 164.099Z" fill="#AAD5FB"/>
<path fill-rule="evenodd" clip-rule="evenodd" d="M32.9915 156.948C32.9915 156.948 33.9316 154.376 33.7435 152.368C33.2422 147.789 30.6726 145.593 30.6726 145.593C30.6726 145.593 31.1113 149.733 30.2339 149.043C29.3565 148.353 29.9206 144.715 29.9206 144.715C29.9206 144.715 27.7271 141.954 24.5935 141.578C21.4599 141.202 17.637 143.084 17.637 143.084C17.637 143.084 16.1329 142.205 14.002 142.143C9.74038 142.08 7.54688 144.464 7.54688 144.464C7.54688 144.464 10.6805 142.895 15.8195 145.279C19.8305 147.224 23.1521 149.294 25.6589 152.117C28.2285 155.066 32.9915 156.948 32.9915 156.948Z" fill="#D4EAFF"/>
<path fill-rule="evenodd" clip-rule="evenodd" d="M35.8262 138.471C35.8262 138.471 37.6437 131.131 36.5783 124.481C35.1368 115.197 29.0577 107.669 29.0577 107.669C29.0577 107.669 27.7416 114.758 26.1121 113.001C24.4827 111.245 27.2402 105.599 27.2402 105.599C27.2402 105.599 26.6762 103.152 21.4118 101.71C14.7059 99.8903 9.62954 102.462 6.11994 102.4C2.61034 102.337 1.48225 101.396 -5.85031 100.894C-10.8014 100.58 -14.875 103.027 -14.875 103.027C-14.875 103.027 -3.15544 102.211 6.93467 112.437C11.5724 117.142 16.022 122.098 16.022 122.098C16.022 122.098 23.6053 120.717 25.1721 123.729C26.1748 125.736 17.4635 124.607 17.4635 124.607C17.4635 124.607 19.9703 128.057 24.796 131.633C29.6217 135.209 35.8262 138.471 35.8262 138.471Z" fill="#D4EAFF"/>
<path fill-rule="evenodd" clip-rule="evenodd" d="M56.3659 47.5506C56.5339 47.5154 56.6985 47.6233 56.7336 47.7916C59.1305 59.2829 56.4179 73.1484 54.3523 83.1108C53.1206 89.1802 51.7181 94.368 50.3645 99.375C49.9248 101.001 49.4903 102.609 49.0684 104.221C47.3471 110.8 45.8317 117.479 45.0192 125.924L45.0191 125.925C44.1438 134.811 44.2065 144.01 45.3315 152.893L45.3315 152.894C45.6035 155.071 46.0393 157.277 46.4747 159.481C46.6388 160.312 46.8029 161.142 46.9581 161.971C46.9837 162.108 47.0093 162.246 47.035 162.384C47.1987 163.265 47.3666 164.169 47.5808 165.027C47.6225 165.193 47.5213 165.363 47.3549 165.404C47.1885 165.446 47.0198 165.345 46.9781 165.178C46.7589 164.3 46.5871 163.375 46.4237 162.496C46.3982 162.358 46.3728 162.221 46.3474 162.086C46.1948 161.271 46.0323 160.449 45.8691 159.623C45.4323 157.411 44.99 155.172 44.7151 152.971C43.5839 144.039 43.5212 134.794 44.4007 125.865C45.2177 117.373 46.7418 110.658 48.4674 104.063C48.8916 102.442 49.3276 100.829 49.7682 99.1994C51.1207 94.1963 52.5162 89.0345 53.7436 82.9862L53.7438 82.9849C55.8145 72.9984 58.4914 59.2621 56.1254 47.9191C56.0903 47.7507 56.198 47.5858 56.3659 47.5506ZM5.54301 102.678C5.54594 102.506 5.68737 102.369 5.85891 102.372C17.0783 102.564 26.3674 112.626 31.5212 124.706L31.5212 124.706C33.823 130.103 35.6816 138.052 37.1903 145.705C37.9534 149.575 38.6255 153.36 39.221 156.714C39.8074 160.017 40.3196 162.902 40.7713 165.038C40.8068 165.206 40.6996 165.371 40.5318 165.407C40.3639 165.442 40.199 165.335 40.1634 165.167C39.7127 163.036 39.1965 160.13 38.6068 156.81C38.0096 153.448 37.3371 149.661 36.5808 145.825C35.0717 138.171 33.2232 130.281 30.9499 124.95C25.8256 112.94 16.6893 103.18 5.84834 102.995C5.67679 102.992 5.54009 102.85 5.54301 102.678ZM17.7027 143.116C17.7194 142.945 17.8713 142.819 18.0421 142.836C22.3161 143.254 25.8296 145.76 28.4523 148.735C31.0751 151.709 32.8353 155.182 33.5999 157.606L33.6006 157.608C34.1059 159.252 34.4841 160.893 34.8602 162.587C35.0459 163.393 35.2452 164.311 35.1812 165.177V165.29C35.1812 165.462 35.0421 165.602 34.8705 165.602C34.6989 165.602 34.5599 165.462 34.5599 165.29V165.165C34.5599 165.157 34.5602 165.149 34.5608 165.141C34.6193 164.38 34.4438 163.547 34.2545 162.726L34.2539 162.723C33.8781 161.03 33.5044 159.41 33.0072 157.793C32.2676 155.449 30.5496 152.053 27.9867 149.147C25.4233 146.24 22.043 143.853 17.9817 143.456C17.8109 143.439 17.686 143.287 17.7027 143.116Z" fill="#AAD5FB"/>
<path opacity="0.3" fill-rule="evenodd" clip-rule="evenodd" d="M16.357 144.288C16.4195 144.448 16.3406 144.629 16.1808 144.691C8.83517 147.571 5.54018 155.873 6.03696 163.829C6.04768 164 5.91755 164.148 5.74632 164.159C5.57508 164.17 5.42758 164.039 5.41686 163.868C4.9109 155.765 8.25907 147.128 15.9545 144.111C16.1143 144.049 16.2945 144.128 16.357 144.288Z" fill="#1E88E5"/>
<path fill-rule="evenodd" clip-rule="evenodd" d="M27.8945 164.168H58.9601L54.8181 193.434H32.0366L27.8945 164.168Z" fill="#D4EAFF"/>
<path d="M222.737 78.208H177.897L154.902 201.358H112.906L112.951 201.432C114.46 203.591 116.469 205.355 118.809 206.575C121.148 207.796 123.749 208.437 126.39 208.443H209.224C214.455 208.459 219.528 206.657 223.569 203.348C227.609 200.04 230.365 195.431 231.36 190.317C231.36 190.146 231.413 189.975 231.442 189.804L243.044 101.33C243.701 96.3323 242.472 91.2694 239.595 87.1223L239.491 86.9588C237.615 84.2621 235.111 82.0577 232.193 80.5339C229.276 79.01 226.032 78.212 222.737 78.208V78.208Z" fill="#AAD5FB"/>
<path d="M142.942 161.74L112.574 158.909C109.302 158.634 106.01 159.035 102.905 160.086C99.7994 161.136 96.9485 162.815 94.5315 165.015L94.3476 165.171C91.2644 167.978 88.9784 171.54 87.7179 175.501C86.4575 179.463 86.2666 183.686 87.1644 187.749L91.1578 205.963" fill="#212122"/>
<path d="M212.322 163.437C212.322 163.437 226.56 184.989 194.075 201.209H134.711L98.2793 263.861C93.4419 272.149 90.0433 275.811 84.1919 283.339L82.8215 285.05L82.1363 288.13L55.4141 289.841L58.4974 280.944L61.5807 271.704C65.6918 261.096 69.2891 253.225 73.0233 244.608L97.6215 188.206C99.9697 182.784 103.478 177.941 107.899 174.018L108.077 173.86C115.531 167.247 125.153 163.595 135.122 163.594L143.481 163.443" fill="#333333"/>
<path d="M164.659 201.445C167.38 201.447 170.064 200.825 172.495 199.626C174.925 198.428 177.035 196.688 178.656 194.546C185.597 185.326 200.965 170.14 226.926 170.14C226.926 170.14 222.825 203.656 188.933 203.656L164.645 203.061V201.445H164.659Z" fill="#AAD5FB"/>
<path d="M172.477 75.4763C197.901 66.8726 215.159 76.9481 220.458 97.301C224.663 107.309 213.014 148.423 213.014 164.205C200.945 172.447 149.222 164.205 150.862 164.205C152.502 164.205 164.908 138.932 157.212 126.148C147.246 109.58 147.053 84.08 172.477 75.4763Z" fill="#D6001D"/>
<path d="M158.092 84.8949C152.876 93.2071 122.748 143.789 122.748 143.789L129.096 158.836C129.096 158.836 158.07 132.404 166.73 120.751C175.39 109.099 158.092 84.8949 158.092 84.8949Z" fill="#D6001D"/>
<path d="M153.188 176.205L86.9188 161.873C86.0353 161.641 86.0817 159.66 86.9187 159.381L117.8 148.676C117.986 148.629 118.172 148.629 118.311 148.676L183.6 165.695C184.019 165.788 184.298 166.207 184.251 166.625L184.158 168.206C184.112 168.578 183.833 168.904 183.461 168.997L153.978 176.251C153.746 176.298 153.467 176.298 153.188 176.205Z" fill="#2998FF"/>
<path d="M153.699 173.368L88.5497 157.278C88.3637 157.232 88.3637 156.953 88.5497 156.906L118.311 146.304C118.358 146.304 118.404 146.304 118.451 146.304L183.74 165.602C183.926 165.649 183.926 165.928 183.74 165.974L153.839 173.368C153.746 173.368 153.746 173.368 153.699 173.368Z" fill="#2998FF"/>
<path d="M155.464 173.043L153.278 173.554C152.999 173.601 152.72 173.601 152.441 173.554L91.663 157.557C91.1515 157.418 90.6864 157.046 90.5004 156.534L72.3645 113.985C72.039 113.194 72.411 112.869 73.1551 112.404L74.2711 111.846C75.4337 111.334 76.3172 111.381 76.7823 111.474L139.514 125.238C140.118 125.378 140.583 125.796 140.816 126.401L155.65 170.346C155.976 171.276 156.487 172.764 155.464 173.043Z" fill="#AAD5FB"/>
<path d="M151.977 174.298L86.6883 159.976C86.3628 159.883 86.1302 159.65 86.0372 159.371L72.0401 113.938C71.8541 113.287 72.4121 112.636 73.1096 112.776L137.841 127.238C138.166 127.331 138.399 127.517 138.492 127.843L153.047 173.182C153.233 173.833 152.675 174.438 151.977 174.298Z" fill="#D4EAFF"/>
<path d="M113.845 142.909C115.1 146.536 114.449 150.07 112.45 150.768C110.45 151.466 107.8 149.047 106.544 145.42C105.288 141.793 105.939 138.259 107.939 137.561C109.939 136.864 112.589 139.282 113.845 142.909Z" fill="white"/>
<path d="M202.234 151.748L181.365 160.45C180.825 160.666 180.321 160.962 179.87 161.33C178.756 162.183 176.147 163.957 173.193 164.206C170.566 164.324 167.946 163.869 165.514 162.873L162.546 166.599C162.546 166.599 165.206 167.783 165.697 169.278C165.98 169.97 166.063 170.727 165.937 171.464L160.96 168.663C160.432 168.365 160.031 167.886 159.83 167.315C159.629 166.744 159.641 166.119 159.865 165.556L161.334 161.694L156.852 166.101C156.852 166.101 158.081 169.409 157.948 170.898C157.848 171.814 157.453 172.674 156.822 173.345L153.913 167.299C153.692 166.825 153.597 166.303 153.638 165.782C153.678 165.26 153.854 164.759 154.146 164.325L157.598 159.283L151.264 163.777C151.264 163.777 150.537 168.601 149.382 169.8C147.872 171.358 146.536 171.121 146.536 171.121L148.366 163.624C148.633 162.491 149.327 161.504 150.304 160.87L156.033 157.049L152.069 156.282C151.416 156.14 150.736 156.193 150.113 156.433L148.111 157.237C147.298 157.564 146.642 158.193 146.281 158.992C145.766 160.079 144.957 161.58 144.054 162.188C142.582 163.152 141.251 163.932 141.251 163.932L143.824 157.539C144.214 156.528 144.978 155.706 145.959 155.245L150.299 153.186C150.848 152.933 151.44 152.787 152.044 152.755L158.94 152.61L175.697 153.842C177.027 153.93 178.355 153.644 179.53 153.014L197.151 143.547L202.234 151.748Z" fill="#FFB8B8"/>
<path d="M203.172 75.5059C216.418 79.711 254.727 129.542 245.854 137.658C236.981 145.774 199.972 157.87 186.516 160.645C182.914 161.388 178.441 151.869 178.441 151.869C179.955 148.841 216.671 130.005 216.671 130.005C216.671 130.005 207.293 121.889 204.476 114.277C198.925 99.2649 203.172 75.5059 203.172 75.5059Z" fill="#D6001D"/>
<path d="M186.516 161.277C183.699 161.277 181.291 158.228 180.408 157.135C179.735 156.252 176.533 153.004 177.248 151.658C178.762 148.673 209.859 133.579 215.62 130.046C213.602 128.238 206.201 121.215 203.72 114.445C203.551 113.94 203.341 113.436 203.215 112.889C203.131 112.637 203.299 112.385 203.551 112.3C203.804 112.216 204.056 112.385 204.14 112.637C204.308 113.142 204.476 113.646 204.645 114.151C207.378 121.636 216.671 129.71 216.798 129.794C216.924 129.878 216.966 130.046 216.966 130.214C216.966 130.383 216.882 130.509 216.756 130.593C201.701 139.718 179.75 150.117 178.657 152.303C178.657 152.303 181.851 158.418 185.603 159.452C187.005 159.838 187.92 159.452 194.282 157.716C208.117 154.857 236.898 145.437 245.603 137.489C246.57 136.606 247.033 135.303 246.99 133.536C246.864 121.131 223.105 91.8214 207.42 78.0706C207.21 77.9024 207.21 77.608 207.378 77.3978C207.546 77.1875 207.841 77.1875 208.051 77.3557C223.862 91.2327 247.832 120.921 247.958 133.536C247.958 135.597 247.411 137.153 246.234 138.204C237.277 146.362 208.58 155.975 194.282 158.96C190.624 159.591 188.787 161.277 186.516 161.277Z" fill="#333333"/>
<path d="M216.039 130.72C215.871 130.72 215.745 130.636 215.661 130.468C215.535 130.257 215.619 129.963 215.829 129.837C221.212 126.809 230.379 124.076 230.463 124.034C230.715 123.95 230.968 124.118 231.052 124.328C231.136 124.581 230.968 124.833 230.757 124.917C230.673 124.959 221.59 127.65 216.334 130.636C216.208 130.72 216.123 130.72 216.039 130.72Z" fill="#333333"/>
<path d="M176.611 85.2817V75.0293L163.504 85.2817L168.116 97.9382H185.261L205.01 79.4942L199.141 73.8535L176.611 85.2817Z" fill="#D6001D"/>
<path fill-rule="evenodd" clip-rule="evenodd" d="M197.674 73.7777L193.407 61.1919L197.157 31.6465L162.111 34.5401C162.111 34.5401 162.164 37.8495 163.105 43.282C163.277 44.6234 161.802 51.4236 161.138 53.9515C161.046 54.1976 161.075 54.4211 161.224 54.6222C161.373 54.8232 161.628 54.8899 161.883 54.9566C162.756 55.0223 163.748 55.0655 163.748 55.0655L164.2 59.5595C164.2 59.5595 165.419 59.4459 166.263 59.288C167.468 59.0626 169.609 58.4332 169.609 58.4332C169.609 58.4332 168.156 59.6206 167.008 60.2932C166.193 60.6746 164.385 61.0128 164.385 61.0128C164.385 61.0128 165.431 64.3654 165.717 66.6011C166.225 71.5423 178.112 67.0294 178.112 67.0294L179.741 79.773L180.636 85.5762L192.988 77.7841L197.674 73.7777Z" fill="#FFB8B8"/>
<mask id="mask1_1307_1468" style="mask-type:alpha" maskUnits="userSpaceOnUse" x="161" y="31" width="39" height="67">
<path fill-rule="evenodd" clip-rule="evenodd" d="M199.438 75.78L193.846 60.9585L198.262 31.8201L162.448 35.8167C162.448 35.8167 162.435 39.0649 163.287 44.3688C163.436 45.6805 161.795 52.4071 161.067 54.9115C160.968 55.1562 160.993 55.3748 161.141 55.5673C161.289 55.7598 161.548 55.8169 161.807 55.874C162.696 55.9098 163.708 55.9195 163.708 55.9195L164.078 60.318C164.078 60.318 165.325 60.1661 166.189 59.9834C167.423 59.7222 169.62 59.0336 169.62 59.0336C169.62 59.0336 168.114 60.2475 166.929 60.9459C166.09 61.3473 164.239 61.739 164.239 61.739C164.239 61.739 165.239 64.9969 165.486 67.1831C165.906 72.0187 178.123 67.1952 178.123 67.1952L179.531 79.6562L182.062 97.5875L192.791 81.1334L199.438 75.78Z" fill="#FFB8B8"/>
</mask>
<g mask="url(#mask1_1307_1468)">
<path opacity="0.1" fill-rule="evenodd" clip-rule="evenodd" d="M167.263 70.2677C167.263 70.2677 172.595 69.8823 176.688 68.3893C180.782 66.8963 185.336 63.792 185.336 63.792C185.336 63.792 182.91 66.9368 182.089 73.574C181.564 78.2086 180.966 84.3943 180.966 84.3943L172.046 77.96L167.263 70.2677Z" fill="#DE1414"/>
</g>
<path fill-rule="evenodd" clip-rule="evenodd" d="M167.483 44.9192C167.425 44.4653 167.973 44.014 168.565 43.9031C169.157 43.7922 169.66 44.1629 169.718 44.6168C169.761 44.9572 169.685 45.5523 169.729 45.8927C169.787 46.3466 169.238 46.798 168.646 46.9089C168.054 47.0198 167.552 46.649 167.494 46.1951C167.598 45.827 167.526 45.2596 167.483 44.9192Z" fill="#212122"/>
<path fill-rule="evenodd" clip-rule="evenodd" d="M166.99 42.289C168.759 41.6192 170.454 41.7788 171.447 42.6826C171.565 42.7904 171.763 42.7817 171.89 42.6631C172.016 42.5446 172.022 42.3611 171.904 42.2533C170.696 41.1542 168.719 41.0247 166.793 41.7542C166.629 41.8164 166.54 41.9866 166.594 42.1343C166.649 42.282 166.826 42.3512 166.99 42.289Z" fill="#333333"/>
<path fill-rule="evenodd" clip-rule="evenodd" d="M192.451 60.5075C192.451 60.5075 197.667 57.963 196.347 53.2829C195.686 50.9429 195.034 49.6092 196.934 46.5658C199.815 41.7709 203.722 32.7523 199.542 27.3759C196.367 23.267 191.585 24.4983 191.585 24.4983C191.585 24.4983 189.383 17.6316 181.36 18.0139C171.31 18.552 167.253 23.5671 165.656 25.21C164.37 26.4587 162.69 22.7417 157.043 23.7991C147.631 25.5615 149.875 32.7562 151.186 34.5266C152.496 36.297 154.022 38.8109 157.131 39.5726C160.24 40.3343 169.363 40.0819 176.781 37.7971C181.652 36.325 183.263 34.7915 183.263 34.7915C183.263 34.7915 183.293 36.9135 184.085 39.3409C185.106 42.6212 186.022 44.1296 186.022 44.1296C186.022 44.1296 186.947 41.9407 188.49 41.7636C190.401 41.6299 190.977 43.3137 190.854 44.2327C190.525 47.3179 187.287 48.3722 187.287 48.3722L192.451 60.5075Z" fill="#212122"/>
<mask id="mask2_1307_1468" style="mask-type:alpha" maskUnits="userSpaceOnUse" x="150" y="18" width="52" height="42">
<path fill-rule="evenodd" clip-rule="evenodd" d="M192.297 59.3645C192.297 59.3645 197.607 56.7193 196.37 52.2225C195.752 49.9741 195.122 48.702 197.099 45.6846C200.101 40.9346 204.223 32.0513 200.118 26.9754C197.001 23.0956 192.156 24.4519 192.156 24.4519C192.156 24.4519 190.076 17.8631 181.982 18.505C171.84 19.3665 167.648 24.3701 166.005 26.0182C164.683 27.2733 163.066 23.7232 157.352 24.94C147.829 26.9679 149.945 33.8737 151.229 35.5473C152.514 37.221 154.001 39.6089 157.119 40.243C160.238 40.8771 169.439 40.3241 176.963 37.8565C181.903 36.2635 183.558 34.721 183.558 34.721C183.558 34.721 183.545 36.7792 184.294 39.1079C185.257 42.2564 186.149 43.6892 186.149 43.6892C186.149 43.6892 187.126 41.5339 188.686 41.31C190.614 41.1157 191.161 42.7301 191.018 43.6261C190.624 46.6309 187.338 47.7633 187.338 47.7633L192.297 59.3645Z" fill="#212122"/>
</mask>
<g mask="url(#mask2_1307_1468)">
<path fill-rule="evenodd" clip-rule="evenodd" d="M156.533 23.125C156.444 23.1082 156.342 23.1623 156.307 23.2458C156.193 23.5151 156.189 23.7819 156.214 24.0231C156.226 24.1442 156.246 24.2626 156.265 24.3734L156.267 24.3811C156.285 24.4905 156.303 24.5915 156.313 24.6875C156.453 26.0527 156.96 27.3293 157.699 28.4419L157.699 28.4431C160.329 32.2977 164.742 35.1444 170.75 33.7456C173.687 33.0617 176.302 31.46 178.793 29.6609C179.651 29.041 180.493 28.3999 181.328 27.7633C182.931 26.5418 184.512 25.3372 186.148 24.3327L186.15 24.3314C188.799 22.6643 191.35 21.557 194.398 21.7803C194.491 21.7871 194.586 21.7238 194.611 21.6389C194.635 21.5539 194.58 21.4795 194.487 21.4727C191.316 21.2404 188.669 22.4005 185.984 24.0899C184.331 25.1053 182.718 26.3343 181.103 27.5645C180.272 28.1976 179.441 28.831 178.603 29.4359C176.124 31.2262 173.569 32.7844 170.719 33.4478C164.913 34.7996 160.607 32.0626 158.007 28.252C157.287 27.1666 156.795 25.9264 156.66 24.6066C156.649 24.5019 156.631 24.3935 156.612 24.2871L156.61 24.2756C156.591 24.164 156.573 24.0535 156.561 23.9422C156.538 23.7186 156.547 23.5066 156.631 23.3067C156.667 23.2231 156.623 23.1418 156.533 23.125ZM185.706 16.7429C183.836 16.8559 182.002 17.3895 180.342 18.4241L180.338 18.4267C179.104 19.2345 178.012 20.2388 176.934 21.2301C176.681 21.4621 176.43 21.6935 176.177 21.9214C174.838 23.1304 173.467 24.2525 171.788 24.9537L171.777 24.9581C170.535 25.5521 169.238 25.6535 168.007 25.3256C167.651 25.2112 167.281 25.0016 166.894 24.7797C166.879 24.7551 166.867 24.7236 166.856 24.6838C166.849 24.6594 166.843 24.634 166.837 24.6065L166.835 24.597C166.83 24.5732 166.824 24.5472 166.818 24.5227C166.805 24.4717 166.783 24.3994 166.728 24.3472C166.661 24.2829 166.562 24.2638 166.448 24.2903C166.352 24.3126 166.281 24.3974 166.29 24.4796C166.298 24.5569 166.373 24.6044 166.461 24.5913C166.467 24.6027 166.472 24.6184 166.477 24.6399C166.482 24.6595 166.487 24.6804 166.492 24.7049L166.494 24.7146C166.5 24.7422 166.507 24.7734 166.516 24.8049C166.533 24.8671 166.559 24.9393 166.609 25.0022C166.619 25.0146 166.631 25.0251 166.645 25.0334L166.654 25.0384C167.041 25.2603 167.445 25.4922 167.844 25.6195L167.851 25.6218C169.155 25.9703 170.55 25.8672 171.893 25.2268C173.645 24.4942 175.062 23.3288 176.404 22.1165C176.664 21.8825 176.92 21.647 177.175 21.4124C178.251 20.4237 179.31 19.4503 180.509 18.6646C182.098 17.6747 183.859 17.1601 185.668 17.0508C185.764 17.045 185.85 16.9714 185.86 16.8864C185.871 16.8014 185.802 16.7371 185.706 16.7429ZM160.758 23.0264C160.792 22.9907 160.81 22.9456 160.806 22.9012C160.804 22.8859 160.802 22.8704 160.799 22.8563C160.797 22.8479 160.79 22.8169 160.768 22.791C160.757 22.7781 160.718 22.7379 160.641 22.7416C160.559 22.7455 160.506 22.7949 160.489 22.8136C160.459 22.8462 160.447 22.8807 160.444 22.8882C160.428 22.932 160.417 23.0041 160.409 23.0694C160.392 23.2083 160.378 23.4083 160.39 23.5266L160.487 24.4727C160.705 25.3796 161.057 26.3749 161.639 27.1089C163.384 29.4869 166.555 31.1144 170.172 30.8111L170.176 30.8108C173.038 30.5215 175.475 29.2249 177.75 27.645C178.773 26.934 179.768 26.1624 180.755 25.3976C180.864 25.3132 180.972 25.2288 181.081 25.1446C182.177 24.2964 183.265 23.465 184.384 22.732C186.93 21.0823 189.44 19.6794 192.354 19.9289C192.447 19.9368 192.543 19.8745 192.569 19.7896C192.595 19.7048 192.54 19.6296 192.448 19.6216C189.384 19.3593 186.759 20.8438 184.212 22.4946C183.076 23.2385 181.974 24.0805 180.879 24.9285C180.771 25.0127 180.662 25.0969 180.553 25.1811C179.566 25.947 178.58 26.7113 177.566 27.4153C175.319 28.9766 172.956 30.225 170.199 30.5041C166.72 30.7952 163.64 29.2265 161.941 26.9088L161.938 26.9051C161.389 26.2132 161.047 25.26 160.832 24.367L160.738 23.4457C160.729 23.3574 160.739 23.1819 160.756 23.0485C160.756 23.0409 160.757 23.0335 160.758 23.0264ZM152.912 25.3734C152.904 25.2912 152.819 25.2426 152.723 25.2649C152.499 25.3171 152.379 25.4951 152.317 25.6469C152.252 25.805 152.222 25.9952 152.209 26.1749C152.183 26.5269 152.218 26.8873 152.23 27.0026C152.148 28.5966 152.072 30.3449 152.967 31.6585C155.193 35.0968 160.301 37.5372 165.035 37.3985L165.037 37.3984C170.621 37.166 176.806 34.445 181.292 30.9533C182.265 30.2134 183.196 29.4277 184.118 28.6498C184.151 28.6226 184.183 28.5954 184.215 28.5682C185.171 27.7621 186.118 26.9662 187.101 26.2315C189.065 24.7634 191.161 23.5483 193.715 23.0056C193.811 22.9852 193.884 22.9016 193.878 22.8188C193.872 22.7361 193.789 22.6856 193.693 22.706C191.052 23.267 188.896 24.5224 186.905 26.0108C185.91 26.7544 184.954 27.5584 183.999 28.3635L183.905 28.4425C182.981 29.2227 182.056 30.0023 181.092 30.7356L181.09 30.7371C176.66 34.1853 170.562 36.8617 165.084 37.0901C160.466 37.225 155.452 34.8321 153.277 31.4703L153.276 31.4679C152.43 30.2292 152.496 28.5654 152.579 26.9517C152.579 26.9449 152.579 26.9382 152.578 26.9316C152.568 26.8283 152.532 26.477 152.557 26.1403C152.569 25.9704 152.597 25.8167 152.643 25.7044C152.691 25.5857 152.737 25.5667 152.754 25.5627C152.85 25.5404 152.921 25.4556 152.912 25.3734ZM181.527 21.753C178.786 23.8688 175.811 25.9245 172.64 27.1866C170.426 28.0125 167.914 28.0764 166.233 26.8325C165.574 26.2644 165.149 25.6421 164.83 24.8881C164.821 24.8656 164.805 24.8466 164.783 24.8329C164.782 24.8317 164.777 24.8263 164.768 24.8136C164.755 24.7944 164.741 24.7672 164.725 24.7325C164.693 24.6635 164.662 24.5752 164.639 24.4869C164.615 24.3977 164.6 24.3153 164.597 24.2578C164.597 24.2502 164.597 24.2438 164.597 24.2383C164.624 24.2048 164.638 24.1645 164.634 24.1248C164.626 24.0426 164.541 23.994 164.445 24.0164C164.306 24.0488 164.268 24.1663 164.26 24.1944C164.248 24.2383 164.247 24.2851 164.249 24.3247C164.253 24.4077 164.272 24.5091 164.298 24.6065C164.325 24.7048 164.36 24.8061 164.398 24.8894C164.417 24.9309 164.438 24.9705 164.46 25.0039C164.473 25.0232 164.49 25.0464 164.513 25.0672C164.844 25.8395 165.287 26.4854 165.972 27.0745L165.979 27.0806C167.77 28.4088 170.425 28.3264 172.726 27.4673L172.731 27.4657C175.963 26.1794 178.98 24.091 181.729 21.9685L181.732 21.9664C181.878 21.8504 182.023 21.7344 182.167 21.6187C184.646 19.6345 186.989 17.7594 190.174 17.7965C190.269 17.7976 190.36 17.7294 190.378 17.6442C190.397 17.559 190.335 17.4891 190.24 17.488C186.899 17.449 184.435 19.4231 181.985 21.3865C181.832 21.5089 181.679 21.6312 181.527 21.753ZM150.308 27.846C150.317 27.8231 150.322 27.7988 150.319 27.7748C150.319 27.7698 150.318 27.7605 150.315 27.7504C150.314 27.7461 150.311 27.735 150.305 27.7225C150.301 27.7163 150.295 27.7048 150.283 27.6929C150.272 27.682 150.247 27.6606 150.203 27.6535C150.151 27.6452 150.099 27.6606 150.061 27.6845C150.028 27.7047 150.01 27.7277 150.002 27.7383C149.986 27.7597 149.979 27.7786 149.977 27.7832C149.972 27.7965 149.969 27.8081 149.969 27.8124C149.964 27.8321 149.961 27.8609 149.959 27.8885C149.953 27.9485 149.946 28.0379 149.94 28.1323C149.934 28.227 149.929 28.3286 149.926 28.4133C149.923 28.4932 149.922 28.57 149.925 28.6068L150.075 30.0634C150.325 31.3834 150.876 32.5422 151.451 33.7525C151.502 33.8593 151.553 33.9665 151.603 34.0742L151.606 34.0799C153.615 37.7964 158.695 39.8183 163.653 39.519C166.621 39.3605 169.521 38.5788 172.397 37.8037L172.415 37.7991C176.728 36.4773 180.564 35.0535 184.143 32.3002C184.53 32.0196 184.873 31.7187 185.186 31.406C185.179 31.4464 185.173 31.4838 185.17 31.5155C185.168 31.5326 185.166 31.5521 185.165 31.571C185.117 31.6935 185.097 31.8076 185.079 31.9067L185.078 31.9122C185.059 32.0244 185.041 32.1183 185 32.2166C184.997 32.2237 184.994 32.231 184.992 32.2383C184.808 32.9392 184.884 33.6821 184.947 34.2944L184.948 34.306C185.15 36.2779 185.605 38.2968 186.292 40.1563C186.292 40.1568 186.292 40.1574 186.292 40.1579L186.459 40.0877L186.291 40.1547C186.291 40.1553 186.292 40.1558 186.292 40.1563C186.338 40.2936 186.385 40.4314 186.431 40.5698C188.344 46.2491 190.533 52.7494 195.417 56.6014C195.482 56.6528 195.593 56.6395 195.664 56.5716C195.734 56.5037 195.739 56.4069 195.674 56.3555C190.848 52.5492 188.678 46.108 186.757 40.4057C186.714 40.2769 186.67 40.1486 186.627 40.0206L186.626 40.0174C185.946 38.177 185.496 36.1775 185.296 34.2251C185.232 33.6035 185.162 32.9095 185.329 32.2661C185.327 32.2699 185.326 32.2737 185.324 32.2774L185.162 32.247L185.332 32.2557C185.331 32.2592 185.33 32.2626 185.329 32.2661C185.382 32.1364 185.404 32.0157 185.422 31.9116L185.423 31.906C185.443 31.7938 185.46 31.6999 185.502 31.6016C185.512 31.5781 185.516 31.5539 185.513 31.5307C185.513 31.5314 185.513 31.5313 185.513 31.5307C185.513 31.5287 185.514 31.5176 185.517 31.4921C185.52 31.4644 185.525 31.4285 185.532 31.3868C185.546 31.3035 185.566 31.2019 185.586 31.1062C185.599 31.0459 185.612 30.9893 185.624 30.9417C185.854 30.6851 186.07 30.4238 186.28 30.1621C186.391 30.0241 186.501 29.8862 186.61 29.7488C186.678 29.6626 186.746 29.5766 186.815 29.4909C186.821 29.5003 186.829 29.5089 186.839 29.5165C188.286 30.6793 188.907 32.2717 189.209 34.0234C189.36 34.8995 189.431 35.8123 189.486 36.7289C189.499 36.9375 189.51 37.1464 189.522 37.3551C189.562 38.0613 189.602 38.7651 189.672 39.4455C189.97 42.3554 190.995 45.0926 192.004 47.7106C192.713 49.7789 193.785 51.7635 195.202 53.457L195.212 53.4687L196.85 54.9904C196.857 54.9971 196.865 55.003 196.874 55.008C196.994 55.0771 197.087 55.1528 197.189 55.2355L197.192 55.2377C197.291 55.3188 197.399 55.4067 197.54 55.4874L197.543 55.4893C197.607 55.5259 197.711 55.5856 197.8 55.6231C197.839 55.6397 197.9 55.6632 197.961 55.6651C197.989 55.6659 198.068 55.664 198.138 55.603C198.211 55.5388 198.212 55.4653 198.208 55.4354C198.2 55.3532 198.115 55.3046 198.019 55.3269C198.008 55.3296 197.997 55.3331 197.987 55.3373C197.917 55.307 197.83 55.2573 197.764 55.2196C197.644 55.1505 197.55 55.0748 197.449 54.9921L197.446 54.9899C197.349 54.9114 197.245 54.8265 197.111 54.748L195.49 53.2408C194.096 51.5726 193.038 49.6153 192.339 47.5733L192.337 47.569C191.327 44.9471 190.314 42.2378 190.019 39.3646C189.95 38.6906 189.911 37.9947 189.871 37.2896C189.859 37.08 189.847 36.8696 189.834 36.6586C189.779 35.7404 189.708 34.8159 189.554 33.9255C189.247 32.1442 188.609 30.4871 187.097 29.2721C187.074 29.2538 187.046 29.2435 187.016 29.2408C187.235 28.9705 187.459 28.7042 187.698 28.4446C187.722 28.4759 187.762 28.4962 187.811 28.4977C189.367 28.5443 190.516 29.1974 191.587 30.1006C193.838 31.9642 194.505 34.8302 194.32 37.8118C194.262 38.5607 194.137 39.3085 194.011 40.0595C193.966 40.3272 193.922 40.5953 193.88 40.8639C193.721 41.8817 193.606 42.9004 193.708 43.899C193.9 45.7774 194.579 47.5412 195.601 49.012C195.916 49.5913 196.343 50.0344 196.887 50.4452L196.9 50.4553L197.425 50.7554C197.461 50.7757 197.506 50.7811 197.552 50.7704L197.826 50.7068L197.796 50.4088L197.595 50.4556L197.132 50.1909C196.611 49.7963 196.212 49.3779 195.918 48.8352L195.912 48.8235C194.91 47.3832 194.244 45.6557 194.055 43.8181C193.957 42.8543 194.067 41.8641 194.225 40.8518C194.266 40.5899 194.31 40.3261 194.354 40.0609C194.481 39.3059 194.609 38.5398 194.668 37.7772L194.669 37.775C194.856 34.7487 194.184 31.7925 191.85 29.8596C190.771 28.9498 189.574 28.2544 187.938 28.1911C188.012 28.1159 188.087 28.0414 188.165 27.9676L188.17 27.9622C188.733 27.3819 189.37 26.8299 190.058 26.3214C190.05 26.3975 190.107 26.4588 190.193 26.4622C193.038 26.5746 195.17 28.1225 196.455 30.2403C197.739 32.3584 198.163 35.027 197.611 37.3401C197.482 37.8673 197.315 38.4041 197.143 38.9499C197.132 38.9858 197.121 39.0218 197.109 39.0578C196.949 39.5674 196.786 40.0845 196.65 40.6014C196.359 41.7087 196.188 42.8295 196.426 43.9152C196.428 43.9261 196.432 43.9365 196.437 43.9463C196.466 43.9995 196.511 44.1326 196.575 44.3211C196.582 44.3412 196.589 44.362 196.596 44.3833C196.668 44.5962 196.757 44.8542 196.86 45.0933C196.962 45.3295 197.083 45.5601 197.224 45.7104C197.294 45.7851 197.379 45.8519 197.483 45.8817C197.597 45.9144 197.727 45.9001 197.852 45.8252C197.938 45.7739 197.973 45.6772 197.929 45.6091C197.886 45.541 197.781 45.5274 197.695 45.5787C197.675 45.5905 197.663 45.5925 197.641 45.5862C197.61 45.5772 197.564 45.5497 197.508 45.4901C197.397 45.3717 197.289 45.1732 197.189 44.941C197.09 44.7116 197.004 44.4619 196.932 44.249C196.924 44.225 196.916 44.2013 196.908 44.178C196.853 44.0142 196.804 43.8691 196.766 43.7914C196.545 42.7688 196.705 41.7028 196.989 40.6189C197.123 40.1094 197.284 39.5991 197.445 39.0879C197.456 39.0525 197.467 39.017 197.478 38.9816C197.65 38.4364 197.82 37.8904 197.952 37.3523C198.522 34.9627 198.083 32.2266 196.769 30.0592C195.457 27.8956 193.258 26.278 190.287 26.1546C190.87 25.7387 191.487 25.3542 192.125 25.0102C192.572 25.0356 193.042 25.1905 193.512 25.3976C193.782 25.5168 194.048 25.6509 194.304 25.7827C194.342 25.8025 194.381 25.8222 194.419 25.8418C194.632 25.9517 194.839 26.0583 195.033 26.1491C198.516 28.0526 200.174 31.1123 200.562 34.9008C200.656 35.8186 200.621 36.6604 200.467 37.5298L200.465 37.5371C200.444 37.7121 200.399 37.9104 200.353 38.1164C200.33 38.2235 200.305 38.3327 200.283 38.4418C200.252 38.5963 200.227 38.7487 200.22 38.8828C200.213 39.0131 200.222 39.1452 200.276 39.2456C200.314 39.3166 200.417 39.3358 200.505 39.2886C200.594 39.2414 200.634 39.1456 200.596 39.0747C200.574 39.0343 200.562 38.9597 200.568 38.8425C200.574 38.7289 200.596 38.5927 200.627 38.4421C200.646 38.3476 200.668 38.2462 200.691 38.1428C200.739 37.9293 200.788 37.7073 200.812 37.5199C200.97 36.6258 201.006 35.76 200.91 34.8199C200.515 30.9667 198.822 27.828 195.248 25.8763L195.24 25.872C195.05 25.7835 194.848 25.6793 194.633 25.5686C194.595 25.5489 194.556 25.5289 194.517 25.5088C194.26 25.3767 193.988 25.2392 193.709 25.1163C193.36 24.9624 192.992 24.8273 192.618 24.7546C193.828 24.1512 195.101 23.6968 196.35 23.4496C196.446 23.4306 196.52 23.3478 196.516 23.2648C196.511 23.1817 196.43 23.1298 196.333 23.1488C194.905 23.4314 193.452 23.9748 192.089 24.6981C192.045 24.6976 192.001 24.6982 191.957 24.7001C191.861 24.704 191.774 24.7763 191.761 24.8614C191.76 24.8669 191.76 24.8723 191.759 24.8777C190.32 25.6813 188.994 26.683 187.926 27.7835C187.317 28.3657 186.818 28.9958 186.33 29.6112C186.222 29.7466 186.115 29.8814 186.008 30.0147C185.84 30.2237 185.67 30.4301 185.494 30.6322C185.452 30.6406 185.42 30.6605 185.402 30.674C185.38 30.6905 185.367 30.7071 185.36 30.7153C185.348 30.7322 185.34 30.7476 185.337 30.7541C185.324 30.7805 185.314 30.8158 185.306 30.8442C185.306 30.8444 185.306 30.8441 185.306 30.8442C184.906 31.2844 184.47 31.7013 183.95 32.0774L183.945 32.0812C180.432 34.7844 176.66 36.1896 172.359 37.5078C169.474 38.2853 166.614 39.0552 163.693 39.211C158.839 39.5042 153.88 37.5197 151.928 33.9117C151.878 33.8061 151.828 33.7012 151.779 33.5969C151.202 32.3828 150.665 31.2523 150.42 29.9665L150.273 28.5259C150.271 28.511 150.272 28.4552 150.275 28.3684C150.278 28.2865 150.283 28.1874 150.288 28.0943C150.294 28.001 150.301 27.9155 150.306 27.8606L150.308 27.846Z" fill="#9955CA"/>
</g>
</g>
<path fill-rule="evenodd" clip-rule="evenodd" d="M197.674 73.7777L193.407 61.1919L197.157 31.6465L162.111 34.5401C162.111 34.5401 162.164 37.8495 163.105 43.282C163.277 44.6234 161.802 51.4236 161.138 53.9515C161.046 54.1976 161.075 54.4211 161.224 54.6222C161.373 54.8232 161.628 54.8899 161.883 54.9566C162.756 55.0223 163.748 55.0655 163.748 55.0655L164.2 59.5595C164.2 59.5595 165.419 59.4459 166.263 59.288C167.468 59.0626 169.609 58.4332 169.609 58.4332C169.609 58.4332 168.156 59.6206 167.008 60.2932C166.193 60.6746 164.385 61.0128 164.385 61.0128C164.385 61.0128 165.431 64.3654 165.717 66.6011C166.225 71.5423 178.112 67.0294 178.112 67.0294L179.741 79.773L180.636 85.5762L192.988 77.7841L197.674 73.7777Z" fill="#FFB8B8"/>
<mask id="mask3_1307_1468" style="mask-type:alpha" maskUnits="userSpaceOnUse" x="161" y="31" width="39" height="67">
<path fill-rule="evenodd" clip-rule="evenodd" d="M199.438 75.78L193.846 60.9585L198.262 31.8201L162.448 35.8167C162.448 35.8167 162.435 39.0649 163.287 44.3688C163.436 45.6805 161.795 52.4071 161.067 54.9115C160.968 55.1562 160.993 55.3748 161.141 55.5673C161.289 55.7598 161.548 55.8169 161.807 55.874C162.696 55.9098 163.708 55.9195 163.708 55.9195L164.078 60.318C164.078 60.318 165.325 60.1661 166.189 59.9834C167.423 59.7222 169.62 59.0336 169.62 59.0336C169.62 59.0336 168.114 60.2475 166.929 60.9459C166.09 61.3473 164.239 61.739 164.239 61.739C164.239 61.739 165.239 64.9969 165.486 67.1831C165.906 72.0187 178.123 67.1952 178.123 67.1952L179.531 79.6562L182.062 97.5875L192.791 81.1334L199.438 75.78Z" fill="#FFB8B8"/>
</mask>
<g mask="url(#mask3_1307_1468)">
<path opacity="0.1" fill-rule="evenodd" clip-rule="evenodd" d="M167.263 70.2677C167.263 70.2677 172.595 69.8823 176.688 68.3893C180.782 66.8963 185.336 63.792 185.336 63.792C185.336 63.792 182.91 66.9368 182.089 73.574C181.564 78.2086 180.966 84.3943 180.966 84.3943L172.046 77.96L167.263 70.2677Z" fill="#DE1414"/>
</g>
<path fill-rule="evenodd" clip-rule="evenodd" d="M167.483 44.9192C167.425 44.4653 167.973 44.014 168.565 43.9031C169.157 43.7922 169.66 44.1629 169.718 44.6168C169.761 44.9572 169.685 45.5523 169.729 45.8927C169.787 46.3466 169.238 46.798 168.646 46.9089C168.054 47.0198 167.552 46.649 167.494 46.1951C167.598 45.827 167.526 45.2596 167.483 44.9192Z" fill="#212122"/>
<path fill-rule="evenodd" clip-rule="evenodd" d="M166.99 42.289C168.759 41.6192 170.454 41.7788 171.447 42.6826C171.565 42.7904 171.763 42.7817 171.89 42.6631C172.016 42.5446 172.022 42.3611 171.904 42.2533C170.696 41.1542 168.719 41.0247 166.793 41.7542C166.629 41.8164 166.54 41.9866 166.594 42.1343C166.649 42.282 166.826 42.3512 166.99 42.289Z" fill="#333333"/>
<path fill-rule="evenodd" clip-rule="evenodd" d="M192.447 60.5075C192.447 60.5075 197.663 57.963 196.343 53.2829C195.682 50.9429 195.03 49.6092 196.93 46.5658C199.811 41.7709 203.718 32.7523 199.538 27.3759C196.363 23.267 191.581 24.4983 191.581 24.4983C191.581 24.4983 189.379 17.6316 181.357 18.0139C171.306 18.552 167.249 23.5671 165.652 25.21C164.366 26.4587 162.686 22.7417 157.039 23.7991C147.627 25.5615 149.872 32.7562 151.182 34.5266C152.492 36.297 154.018 38.8109 157.127 39.5726C160.236 40.3343 169.359 40.0819 176.777 37.7971C181.648 36.325 183.259 34.7915 183.259 34.7915C183.259 34.7915 183.289 36.9135 184.081 39.3409C185.103 42.6212 186.018 44.1296 186.018 44.1296C186.018 44.1296 186.943 41.9407 188.486 41.7636C190.397 41.6299 190.973 43.3137 190.85 44.2327C190.521 47.3179 187.283 48.3722 187.283 48.3722L192.447 60.5075Z" fill="#212122"/>
<mask id="mask4_1307_1468" style="mask-type:alpha" maskUnits="userSpaceOnUse" x="150" y="18" width="52" height="42">
<path fill-rule="evenodd" clip-rule="evenodd" d="M192.297 59.3646C192.297 59.3646 197.607 56.7193 196.37 52.2225C195.752 49.9742 195.122 48.702 197.099 45.6846C200.101 40.9346 204.223 32.0514 200.118 26.9754C197.001 23.0956 192.156 24.4519 192.156 24.4519C192.156 24.4519 190.076 17.8631 181.982 18.505C171.84 19.3665 167.648 24.3701 166.005 26.0182C164.683 27.2733 163.066 23.7232 157.352 24.94C147.829 26.9679 149.945 33.8737 151.229 35.5473C152.514 37.221 154.001 39.6089 157.12 40.243C160.238 40.8771 169.439 40.3241 176.963 37.8565C181.903 36.2635 183.558 34.721 183.558 34.721C183.558 34.721 183.545 36.7792 184.294 39.1079C185.257 42.2564 186.149 43.6892 186.149 43.6892C186.149 43.6892 187.126 41.5339 188.686 41.31C190.614 41.1157 191.161 42.7301 191.018 43.6261C190.624 46.6309 187.338 47.7633 187.338 47.7633L192.297 59.3646Z" fill="#212122"/>
</mask>
<g mask="url(#mask4_1307_1468)">
<path fill-rule="evenodd" clip-rule="evenodd" d="M156.533 23.125C156.444 23.1082 156.342 23.1623 156.307 23.2458C156.193 23.5151 156.189 23.7819 156.214 24.0231C156.226 24.1442 156.246 24.2626 156.265 24.3734L156.267 24.3811C156.285 24.4905 156.303 24.5915 156.313 24.6874C156.453 26.0527 156.96 27.3293 157.699 28.4419L157.699 28.4431C160.329 32.2977 164.742 35.1444 170.75 33.7456C173.687 33.0617 176.302 31.46 178.793 29.6609C179.651 29.041 180.493 28.3999 181.328 27.7633C182.931 26.5418 184.512 25.3372 186.148 24.3327L186.15 24.3314C188.799 22.6643 191.35 21.557 194.398 21.7803C194.491 21.7871 194.586 21.7238 194.611 21.6389C194.635 21.5539 194.58 21.4795 194.487 21.4727C191.316 21.2404 188.669 22.4005 185.984 24.0899C184.331 25.1053 182.718 26.3342 181.103 27.5645C180.272 28.1976 179.441 28.831 178.603 29.4359C176.124 31.2262 173.569 32.7844 170.719 33.4478C164.913 34.7995 160.607 32.0626 158.007 28.252C157.287 27.1666 156.795 25.9264 156.66 24.6065C156.649 24.5019 156.631 24.3935 156.612 24.2871L156.61 24.2756C156.591 24.164 156.573 24.0535 156.561 23.9422C156.538 23.7186 156.547 23.5066 156.632 23.3067C156.667 23.2231 156.623 23.1418 156.533 23.125ZM185.706 16.7429C183.836 16.8559 182.002 17.3895 180.342 18.424L180.338 18.4267C179.104 19.2345 178.012 20.2388 176.934 21.2301C176.681 21.4621 176.43 21.6935 176.177 21.9214C174.838 23.1304 173.467 24.2525 171.788 24.9537L171.777 24.9581C170.535 25.5521 169.238 25.6535 168.007 25.3256C167.651 25.2112 167.281 25.0016 166.894 24.7797C166.879 24.7551 166.867 24.7235 166.856 24.6838C166.849 24.6593 166.843 24.634 166.837 24.6065L166.835 24.597C166.83 24.5732 166.824 24.5472 166.818 24.5227C166.805 24.4717 166.783 24.3993 166.728 24.3472C166.661 24.2829 166.562 24.2638 166.448 24.2903C166.352 24.3126 166.281 24.3974 166.29 24.4796C166.298 24.5569 166.373 24.6044 166.461 24.5913C166.467 24.6027 166.472 24.6184 166.477 24.6399C166.482 24.6595 166.487 24.6804 166.492 24.7049L166.494 24.7146C166.5 24.7422 166.507 24.7734 166.516 24.8049C166.533 24.867 166.559 24.9393 166.609 25.0022C166.619 25.0146 166.631 25.0251 166.645 25.0334L166.654 25.0384C167.041 25.2603 167.445 25.4922 167.844 25.6195L167.851 25.6218C169.155 25.9703 170.55 25.8672 171.893 25.2268C173.645 24.4942 175.062 23.3288 176.404 22.1165C176.664 21.8825 176.92 21.647 177.175 21.4124C178.251 20.4237 179.31 19.4503 180.509 18.6646C182.098 17.6747 183.859 17.1601 185.668 17.0508C185.764 17.045 185.85 16.9714 185.86 16.8864C185.871 16.8014 185.802 16.7371 185.706 16.7429ZM160.758 23.0264C160.792 22.9907 160.81 22.9456 160.806 22.9012C160.804 22.8859 160.802 22.8704 160.799 22.8563C160.797 22.8479 160.79 22.8169 160.768 22.791C160.757 22.7781 160.718 22.7379 160.641 22.7416C160.559 22.7455 160.506 22.7949 160.489 22.8136C160.459 22.8462 160.447 22.8807 160.444 22.8882C160.428 22.932 160.417 23.0041 160.409 23.0694C160.392 23.2083 160.378 23.4082 160.39 23.5266L160.487 24.4727C160.705 25.3796 161.057 26.3749 161.639 27.1089C163.384 29.4869 166.555 31.1144 170.172 30.8111L170.176 30.8108C173.038 30.5215 175.475 29.2249 177.75 27.645C178.773 26.934 179.768 26.1624 180.755 25.3976C180.864 25.3132 180.972 25.2288 181.081 25.1446C182.177 24.2964 183.265 23.465 184.384 22.732C186.93 21.0823 189.44 19.6794 192.354 19.9289C192.447 19.9368 192.543 19.8745 192.569 19.7896C192.595 19.7048 192.54 19.6296 192.448 19.6216C189.384 19.3593 186.759 20.8438 184.212 22.4946C183.076 23.2385 181.974 24.0805 180.879 24.9285C180.771 25.0127 180.662 25.0969 180.553 25.1811C179.566 25.947 178.58 26.7113 177.566 27.4153C175.319 28.9766 172.956 30.2249 170.199 30.5041C166.72 30.7952 163.64 29.2265 161.941 26.9088L161.938 26.9051C161.389 26.2132 161.047 25.2599 160.832 24.367L160.738 23.4457C160.729 23.3574 160.739 23.1819 160.756 23.0485C160.756 23.0409 160.757 23.0335 160.758 23.0264ZM152.912 25.3734C152.904 25.2912 152.819 25.2426 152.723 25.2649C152.499 25.3171 152.379 25.4951 152.317 25.6468C152.252 25.805 152.222 25.9952 152.209 26.1749C152.183 26.5269 152.218 26.8873 152.23 27.0026C152.148 28.5966 152.072 30.3449 152.967 31.6585C155.193 35.0968 160.301 37.5372 165.035 37.3985L165.037 37.3984C170.621 37.166 176.806 34.445 181.292 30.9533C182.265 30.2134 183.196 29.4277 184.118 28.6498C184.151 28.6226 184.183 28.5954 184.215 28.5682C185.171 27.7621 186.118 26.9662 187.101 26.2315C189.065 24.7634 191.161 23.5483 193.715 23.0056C193.811 22.9852 193.884 22.9016 193.878 22.8188C193.872 22.7361 193.789 22.6856 193.693 22.706C191.052 23.267 188.896 24.5224 186.905 26.0108C185.91 26.7544 184.954 27.5584 183.999 28.3635L183.905 28.4425C182.981 29.2227 182.056 30.0023 181.092 30.7356L181.09 30.7371C176.66 34.1853 170.562 36.8617 165.084 37.0901C160.466 37.225 155.452 34.8321 153.277 31.4703L153.276 31.4679C152.43 30.2292 152.496 28.5654 152.579 26.9517C152.579 26.9449 152.579 26.9382 152.578 26.9316C152.568 26.8283 152.532 26.477 152.557 26.1403C152.569 25.9703 152.597 25.8167 152.643 25.7044C152.691 25.5857 152.737 25.5667 152.754 25.5627C152.85 25.5404 152.921 25.4556 152.912 25.3734ZM181.527 21.753C178.786 23.8688 175.811 25.9245 172.64 27.1866C170.426 28.0125 167.914 28.0764 166.233 26.8325C165.574 26.2644 165.149 25.6421 164.83 24.8881C164.821 24.8656 164.805 24.8466 164.783 24.8329C164.782 24.8317 164.777 24.8263 164.768 24.8136C164.755 24.7944 164.741 24.7672 164.725 24.7325C164.693 24.6635 164.662 24.5752 164.639 24.4869C164.615 24.3977 164.6 24.3153 164.597 24.2578C164.597 24.2502 164.597 24.2438 164.597 24.2383C164.624 24.2048 164.638 24.1645 164.634 24.1248C164.626 24.0426 164.541 23.994 164.445 24.0164C164.306 24.0488 164.268 24.1663 164.26 24.1944C164.248 24.2383 164.247 24.2851 164.249 24.3247C164.253 24.4077 164.272 24.5091 164.298 24.6065C164.325 24.7048 164.36 24.8061 164.398 24.8894C164.417 24.9309 164.438 24.9705 164.46 25.0039C164.473 25.0232 164.49 25.0464 164.513 25.0672C164.844 25.8395 165.287 26.4854 165.972 27.0745L165.979 27.0806C167.77 28.4088 170.425 28.3264 172.726 27.4673L172.731 27.4657C175.963 26.1794 178.98 24.091 181.729 21.9685L181.732 21.9664C181.878 21.8504 182.023 21.7344 182.167 21.6187C184.646 19.6345 186.989 17.7594 190.174 17.7965C190.269 17.7976 190.36 17.7294 190.378 17.6442C190.397 17.559 190.335 17.4891 190.24 17.4879C186.899 17.449 184.435 19.4231 181.985 21.3865C181.832 21.5089 181.679 21.6312 181.527 21.753ZM150.308 27.8459C150.317 27.8231 150.322 27.7988 150.319 27.7748C150.319 27.7698 150.318 27.7605 150.315 27.7504C150.314 27.7461 150.311 27.735 150.305 27.7225C150.301 27.7163 150.295 27.7048 150.283 27.6929C150.272 27.682 150.247 27.6606 150.203 27.6535C150.151 27.6451 150.099 27.6605 150.061 27.6845C150.028 27.7047 150.01 27.7277 150.002 27.7383C149.986 27.7597 149.979 27.7786 149.977 27.7832C149.972 27.7965 149.97 27.8081 149.969 27.8124C149.964 27.8321 149.961 27.8609 149.959 27.8885C149.953 27.9485 149.946 28.0379 149.94 28.1323C149.934 28.227 149.929 28.3286 149.926 28.4133C149.923 28.4932 149.922 28.57 149.925 28.6068L150.075 30.0634C150.325 31.3833 150.876 32.5422 151.451 33.7525C151.502 33.8593 151.553 33.9664 151.603 34.0742L151.606 34.0799C153.615 37.7964 158.695 39.8183 163.653 39.519C166.621 39.3605 169.521 38.5788 172.397 37.8037L172.415 37.7991C176.728 36.4773 180.564 35.0535 184.143 32.3002C184.53 32.0196 184.873 31.7187 185.186 31.406C185.179 31.4464 185.173 31.4838 185.17 31.5155C185.168 31.5326 185.166 31.5521 185.165 31.571C185.117 31.6935 185.097 31.8076 185.079 31.9067L185.078 31.9122C185.059 32.0244 185.041 32.1183 185 32.2166C184.997 32.2237 184.994 32.231 184.992 32.2383C184.808 32.9392 184.884 33.6821 184.947 34.2944L184.948 34.306C185.15 36.2778 185.605 38.2968 186.292 40.1563C186.292 40.1568 186.292 40.1574 186.292 40.1579L186.459 40.0877L186.291 40.1547C186.291 40.1552 186.292 40.1558 186.292 40.1563C186.338 40.2936 186.385 40.4314 186.431 40.5698C188.344 46.2491 190.533 52.7494 195.417 56.6014C195.482 56.6528 195.593 56.6395 195.664 56.5716C195.734 56.5037 195.739 56.4069 195.674 56.3554C190.848 52.5492 188.678 46.108 186.757 40.4057C186.714 40.2769 186.67 40.1485 186.627 40.0206L186.626 40.0174C185.946 38.177 185.496 36.1775 185.296 34.2251C185.232 33.6035 185.162 32.9095 185.329 32.2661C185.327 32.2699 185.326 32.2737 185.324 32.2774L185.162 32.247L185.332 32.2557C185.331 32.2592 185.33 32.2626 185.329 32.2661C185.382 32.1364 185.404 32.0157 185.422 31.9116L185.423 31.906C185.443 31.7938 185.46 31.6999 185.502 31.6016C185.512 31.5781 185.516 31.5538 185.513 31.5307C185.513 31.5314 185.513 31.5313 185.513 31.5307C185.513 31.5287 185.514 31.5175 185.517 31.4921C185.52 31.4644 185.525 31.4285 185.532 31.3868C185.546 31.3035 185.566 31.2019 185.586 31.1062C185.599 31.0459 185.612 30.9893 185.624 30.9417C185.854 30.6851 186.07 30.4238 186.28 30.1621C186.391 30.0241 186.501 29.8862 186.61 29.7488C186.678 29.6626 186.746 29.5766 186.815 29.4909C186.821 29.5003 186.829 29.5089 186.839 29.5165C188.286 30.6793 188.907 32.2717 189.209 34.0234C189.36 34.8995 189.431 35.8123 189.486 36.7289C189.499 36.9375 189.51 37.1464 189.522 37.3551C189.562 38.0613 189.602 38.7651 189.672 39.4455C189.97 42.3554 190.995 45.0926 192.004 47.7106C192.713 49.7788 193.785 51.7635 195.202 53.4569L195.212 53.4687L196.85 54.9904C196.857 54.997 196.865 55.003 196.874 55.008C196.994 55.077 197.087 55.1528 197.189 55.2355L197.192 55.2376C197.291 55.3188 197.399 55.4067 197.54 55.4874L197.543 55.4893C197.607 55.5258 197.711 55.5856 197.8 55.6231C197.839 55.6397 197.9 55.6632 197.961 55.6651C197.989 55.6659 198.068 55.664 198.138 55.6029C198.211 55.5388 198.212 55.4653 198.208 55.4354C198.2 55.3531 198.115 55.3046 198.019 55.3269C198.008 55.3296 197.997 55.3331 197.987 55.3373C197.917 55.307 197.83 55.2573 197.764 55.2196C197.644 55.1505 197.55 55.0748 197.449 54.9921L197.446 54.9899C197.349 54.9114 197.245 54.8265 197.111 54.748L195.49 53.2408C194.096 51.5726 193.038 49.6152 192.339 47.5733L192.337 47.569C191.327 44.9471 190.314 42.2378 190.019 39.3646C189.95 38.6906 189.911 37.9947 189.871 37.2896C189.859 37.08 189.847 36.8695 189.834 36.6586C189.779 35.7404 189.708 34.8159 189.554 33.9255C189.247 32.1442 188.609 30.4871 187.097 29.2721C187.074 29.2538 187.046 29.2435 187.016 29.2408C187.235 28.9705 187.459 28.7042 187.698 28.4446C187.722 28.4759 187.762 28.4962 187.811 28.4977C189.367 28.5443 190.516 29.1974 191.587 30.1006C193.838 31.9642 194.505 34.8302 194.32 37.8118C194.262 38.5607 194.137 39.3085 194.011 40.0595C193.966 40.3272 193.922 40.5952 193.88 40.8639C193.721 41.8817 193.606 42.9004 193.708 43.899C193.9 45.7774 194.579 47.5412 195.601 49.012C195.916 49.5913 196.343 50.0344 196.887 50.4452L196.9 50.4553L197.425 50.7554C197.461 50.7757 197.506 50.7811 197.552 50.7703L197.826 50.7067L197.796 50.4088L197.595 50.4556L197.132 50.1909C196.611 49.7963 196.212 49.3779 195.918 48.8352L195.912 48.8235C194.91 47.3832 194.244 45.6557 194.055 43.8181C193.957 42.8543 194.067 41.8641 194.225 40.8518C194.266 40.5899 194.31 40.3261 194.354 40.0609C194.481 39.3059 194.609 38.5397 194.668 37.7772L194.669 37.775C194.856 34.7486 194.184 31.7925 191.85 29.8596C190.771 28.9498 189.574 28.2544 187.938 28.1911C188.012 28.1159 188.087 28.0414 188.165 27.9676L188.17 27.9621C188.733 27.3819 189.37 26.8299 190.058 26.3214C190.05 26.3975 190.107 26.4588 190.193 26.4622C193.038 26.5746 195.17 28.1225 196.455 30.2403C197.739 32.3584 198.163 35.027 197.611 37.3401C197.482 37.8673 197.315 38.4041 197.143 38.9499C197.132 38.9858 197.121 39.0218 197.109 39.0577C196.949 39.5674 196.786 40.0844 196.65 40.6014C196.359 41.7087 196.188 42.8295 196.426 43.9152C196.428 43.9261 196.432 43.9365 196.437 43.9463C196.466 43.9995 196.511 44.1326 196.575 44.3211C196.582 44.3412 196.589 44.3619 196.596 44.3833C196.668 44.5962 196.757 44.8542 196.86 45.0933C196.962 45.3295 197.083 45.5601 197.224 45.7104C197.294 45.7851 197.379 45.8518 197.483 45.8817C197.597 45.9144 197.727 45.9001 197.852 45.8252C197.938 45.7739 197.973 45.6772 197.929 45.6091C197.886 45.541 197.781 45.5274 197.695 45.5787C197.675 45.5905 197.663 45.5925 197.641 45.5862C197.61 45.5772 197.564 45.5497 197.508 45.49C197.397 45.3717 197.289 45.1732 197.189 44.9409C197.09 44.7116 197.004 44.4619 196.932 44.249C196.924 44.225 196.916 44.2013 196.908 44.178C196.853 44.0142 196.804 43.8691 196.766 43.7914C196.545 42.7688 196.705 41.7028 196.989 40.6188C197.123 40.1094 197.284 39.5991 197.445 39.0879C197.456 39.0525 197.467 39.017 197.478 38.9816C197.65 38.4363 197.82 37.8904 197.952 37.3523C198.522 34.9626 198.083 32.2266 196.769 30.0592C195.457 27.8956 193.258 26.278 190.287 26.1546C190.87 25.7387 191.487 25.3542 192.125 25.0102C192.572 25.0356 193.042 25.1905 193.512 25.3976C193.782 25.5168 194.048 25.6509 194.304 25.7827C194.342 25.8025 194.381 25.8222 194.419 25.8418C194.632 25.9517 194.839 26.0583 195.033 26.1491C198.516 28.0526 200.174 31.1123 200.562 34.9008C200.656 35.8186 200.621 36.6604 200.467 37.5298L200.465 37.5371C200.444 37.7121 200.399 37.9104 200.353 38.1164C200.33 38.2235 200.305 38.3327 200.283 38.4418C200.252 38.5963 200.227 38.7487 200.22 38.8828C200.213 39.0131 200.222 39.1452 200.276 39.2456C200.314 39.3166 200.417 39.3358 200.505 39.2886C200.594 39.2414 200.634 39.1456 200.596 39.0747C200.574 39.0343 200.562 38.9597 200.568 38.8425C200.574 38.7289 200.596 38.5927 200.627 38.4421C200.646 38.3475 200.668 38.2461 200.691 38.1428C200.739 37.9293 200.788 37.7073 200.812 37.5199C200.97 36.6258 201.006 35.76 200.91 34.8199C200.515 30.9667 198.822 27.828 195.248 25.8763L195.24 25.872C195.05 25.7835 194.848 25.6793 194.633 25.5686C194.595 25.5488 194.556 25.5289 194.517 25.5088C194.26 25.3767 193.988 25.2392 193.709 25.1163C193.36 24.9624 192.992 24.8273 192.618 24.7546C193.828 24.1512 195.101 23.6968 196.35 23.4496C196.446 23.4306 196.52 23.3478 196.516 23.2648C196.511 23.1817 196.43 23.1298 196.333 23.1488C194.905 23.4314 193.452 23.9748 192.089 24.6981C192.045 24.6976 192.001 24.6982 191.957 24.7001C191.861 24.704 191.774 24.7763 191.761 24.8614C191.76 24.8669 191.76 24.8723 191.759 24.8777C190.32 25.6813 188.994 26.683 187.926 27.7835C187.317 28.3657 186.818 28.9958 186.33 29.6112C186.222 29.7466 186.115 29.8813 186.008 30.0147C185.84 30.2237 185.67 30.4301 185.494 30.6322C185.452 30.6406 185.42 30.6605 185.402 30.674C185.38 30.6905 185.367 30.7071 185.36 30.7153C185.348 30.7322 185.34 30.7476 185.337 30.7541C185.324 30.7805 185.314 30.8158 185.306 30.8442C185.306 30.8444 185.306 30.8441 185.306 30.8442C184.906 31.2844 184.47 31.7013 183.95 32.0774L183.945 32.0812C180.432 34.7844 176.66 36.1896 172.359 37.5078C169.474 38.2853 166.614 39.0552 163.693 39.211C158.839 39.5042 153.88 37.5197 151.928 33.9117C151.878 33.8061 151.828 33.7012 151.779 33.5969C151.202 32.3828 150.665 31.2523 150.42 29.9665L150.273 28.5259C150.271 28.511 150.272 28.4552 150.275 28.3684C150.278 28.2865 150.283 28.1874 150.288 28.0943C150.294 28.001 150.301 27.9155 150.306 27.8606L150.308 27.8459Z" fill="#9955CA"/>
</g>
<path fill-rule="evenodd" clip-rule="evenodd" d="M44.5238 127.212C44.5238 127.212 41.5155 121.441 40.6381 116.046C39.0713 106.447 38.6953 93.8382 38.6953 93.8382C38.6953 93.8382 42.8316 99.4841 44.5864 98.5432C46.3412 97.5394 39.0087 90.9525 39.0087 90.9525C39.0087 90.9525 41.7035 79.0961 43.9597 73.0738C50.0388 56.6379 56.5567 47.1025 56.5567 47.1025C56.5567 47.1025 60.129 50.3646 62.9492 58.1435C64.9547 63.7266 65.5814 75.2694 65.5814 75.2694C65.5814 75.2694 59.2516 78.7824 59.5649 81.6054C59.8783 84.3656 65.8321 78.1551 65.8321 78.1551C65.8321 78.1551 65.3934 85.6203 64.2653 92.96C62.2598 105.883 58.4368 110.839 58.4368 110.839C58.4368 110.839 50.2895 111.466 50.1642 113.662C50.0388 115.795 57.6848 113.034 57.6848 113.034C57.6848 113.034 57.7474 112.156 53.3604 117.112C48.9734 122.005 44.5238 127.212 44.5238 127.212Z" fill="#D4EAFF"/>
<path d="M56.3651 47.5506C56.5331 47.5154 56.6977 47.6233 56.7328 47.7916C59.1297 59.2829 56.4172 73.1484 54.3515 83.1108C53.1199 89.1801 51.7174 94.3679 50.3637 99.3749L50.3637 99.375L50.3635 99.3757C49.9239 101.002 49.4894 102.609 49.0676 104.221C47.3463 110.8 45.8309 117.479 45.0184 125.924C44.3999 130.607 44.7541 130.837 44.3092 130.837C43.7483 130.837 44.2039 127.917 44.3999 125.865C45.2169 117.373 46.741 110.658 48.4666 104.063C48.8908 102.442 49.3268 100.829 49.7674 99.1994C51.1199 94.1963 52.5154 89.0345 53.7428 82.9862L53.743 82.9849C55.8137 72.9984 58.4907 59.2621 56.1246 47.9191C56.0895 47.7507 56.1972 47.5858 56.3651 47.5506Z" fill="#AAD5FB"/>
</svg>
