<svg width="274" height="259" viewBox="0 0 274 259" fill="none" xmlns="http://www.w3.org/2000/svg">
<path d="M141.59 215.095C94.639 217.145 47.9667 192.426 29.501 154.032C16.8789 127.804 27.2783 86.7261 60.8163 75.4995C94.3543 64.273 126.863 85.4151 149.999 75.4995C172.831 65.7457 215.101 52.4308 239.072 85.7808C255.807 109.045 253.518 142.184 233.239 175.751C221.457 195.206 188.541 213.046 141.59 215.095Z" fill="#EAF5FF"/>
<mask id="mask0_1307_1542" style="mask-type:alpha" maskUnits="userSpaceOnUse" x="24" y="64" width="227" height="152">
<path d="M141.59 215.095C94.639 217.145 47.9667 192.426 29.501 154.032C16.8789 127.804 27.2783 86.7261 60.8163 75.4995C94.3543 64.273 126.863 85.4151 149.999 75.4995C172.831 65.7457 215.101 52.4308 239.072 85.7808C255.807 109.045 253.518 142.184 233.239 175.751C221.457 195.206 188.541 213.046 141.59 215.095Z" fill="#EAF5FF"/>
</mask>
<g mask="url(#mask0_1307_1542)">
<path fill-rule="evenodd" clip-rule="evenodd" d="M223.437 177.953C223.437 177.953 219.367 173.359 217.266 169.508C216.15 167.413 214.444 162.211 215.756 159.509C215.756 159.441 216.413 161.198 217.332 162.481C218.316 163.968 219.629 164.981 219.695 164.913C220.023 164.441 218.907 162.954 217.988 160.927C217.397 159.644 216.61 157.009 216.61 157.009C216.61 157.009 218.316 153.698 219.498 152.28C224.749 146.131 235.974 144.983 243.326 144.307C245.427 144.105 246.674 146.672 248.775 146.807C249.037 146.807 250.547 146.807 250.613 147.145C250.744 147.55 244.77 148.226 243.72 148.834C241.029 150.388 239.913 152.28 239.913 152.28C239.913 152.28 233.414 154.441 233.677 156.266C233.808 157.144 239.716 153.766 239.716 153.766C239.716 153.766 237.484 162.076 233.611 167.278C229.87 172.413 224.29 176.804 223.437 177.953Z" fill="#AAD5FB"/>
<path opacity="0.2" fill-rule="evenodd" clip-rule="evenodd" d="M223.44 177.953C223.44 177.953 219.371 173.359 217.27 169.508C216.154 167.413 214.447 162.211 215.76 159.509C215.76 159.441 216.417 161.198 217.336 162.481C218.32 163.968 219.633 164.981 219.699 164.913C220.027 164.441 218.911 162.954 217.992 160.927C217.401 159.644 216.614 157.009 216.614 157.009C216.614 157.009 218.32 153.698 219.502 152.28C224.753 146.131 235.978 144.983 243.33 144.307C245.431 144.105 246.678 146.672 248.778 146.807C249.041 146.807 250.551 146.807 250.616 147.145C250.748 147.55 244.774 148.226 243.724 148.834C241.033 150.388 239.917 152.28 239.917 152.28C239.917 152.28 233.418 154.441 233.681 156.266C233.812 157.144 239.72 153.766 239.72 153.766C239.72 153.766 237.488 162.076 233.615 167.278C229.873 172.413 224.294 176.804 223.44 177.953Z" fill="#5C9FDB"/>
<path fill-rule="evenodd" clip-rule="evenodd" d="M219.105 152.684C219.105 152.684 222.585 146.874 228.361 143.766C238.339 138.429 242.277 138.497 247.922 138.159C259.541 137.483 266.828 142.145 266.828 142.145C266.828 142.145 262.955 141.604 261.117 141.672C258.031 141.807 255.274 142.28 255.274 142.28C255.274 142.28 259.804 142.483 262.692 143.023C266.434 143.699 269.913 144.577 269.913 144.577C269.913 144.577 274.573 150.522 276.543 154.036C278.709 157.819 280.219 162.886 279.628 163.494C279.168 164.035 272.21 163.089 271.685 162.954C267.55 162.075 259.476 158.292 259.476 158.292C259.476 158.292 257.834 155.927 258.031 154.238C258.228 152.617 258.491 149.779 258.491 149.779C258.491 149.779 257.178 151.536 256.719 153.157C256.193 155.049 256.193 156.535 256.193 156.535C256.193 156.535 248.776 150.117 240.767 148.631C228.427 146.604 219.105 152.684 219.105 152.684Z" fill="#D4EAFF"/>
<path fill-rule="evenodd" clip-rule="evenodd" d="M260.974 147.633C256.281 144.748 244.658 138.672 229.986 143.349C229.775 143.416 229.552 143.295 229.487 143.078C229.422 142.861 229.539 142.63 229.75 142.563C244.748 137.782 256.624 144.001 261.384 146.927L261.385 146.928C270.02 152.287 275.248 157.118 279.684 163.318C279.814 163.501 279.777 163.759 279.599 163.893C279.422 164.028 279.172 163.989 279.041 163.806C274.68 157.711 269.538 152.948 260.974 147.633Z" fill="#AAD5FB"/>
<path fill-rule="evenodd" clip-rule="evenodd" d="M208.667 155.116C208.667 155.116 205.516 148.901 204.597 143.091C202.956 132.754 202.562 119.174 202.562 119.174C202.562 119.174 206.895 125.254 208.733 124.241C210.571 123.16 202.891 116.066 202.891 116.066C202.891 116.066 205.713 103.297 208.076 96.8111C214.444 79.1101 221.271 68.8408 221.271 68.8408C221.271 68.8408 225.012 72.354 227.966 80.7316C230.067 86.7445 230.723 99.1758 230.723 99.1758C230.723 99.1758 224.093 102.959 224.421 105.999C224.75 108.972 230.986 102.284 230.986 102.284C230.986 102.284 230.526 110.323 229.345 118.228C227.244 132.146 223.24 137.483 223.24 137.483C223.24 137.483 214.706 138.159 214.575 140.523C214.444 142.82 222.452 139.848 222.452 139.848C222.452 139.848 222.518 138.902 217.923 144.239C213.328 149.509 208.667 155.116 208.667 155.116Z" fill="#D4EAFF"/>
<path fill-rule="evenodd" clip-rule="evenodd" d="M235.04 150.671C235.214 150.81 235.245 151.069 235.11 151.248C228.726 159.696 224.549 169.421 222.522 183.949C222.385 185.275 221.915 187.063 221.392 188.879L221.392 188.88C221.065 190.001 220.616 191.672 220.197 193.232C219.985 194.017 219.782 194.774 219.605 195.419C219.474 195.899 219.357 196.317 219.264 196.636C219.175 196.94 219.097 197.191 219.046 197.306C219.038 197.323 219.026 197.348 219.01 197.374L219.009 197.376C219.002 197.387 218.954 197.469 218.861 197.524C218.799 197.561 218.674 197.61 218.525 197.556C218.387 197.506 218.323 197.399 218.3 197.351C218.259 197.267 218.255 197.188 218.255 197.172L218.255 197.17C218.25 197.087 218.267 196.972 218.282 196.872C218.319 196.638 218.396 196.235 218.519 195.636C218.551 195.481 218.663 195.365 218.801 195.325C218.813 195.282 218.825 195.239 218.837 195.195C219.011 194.56 219.213 193.808 219.423 193.027C219.844 191.461 220.298 189.773 220.627 188.644C221.154 186.816 221.602 185.095 221.729 183.854C221.729 183.849 221.73 183.844 221.731 183.839C223.774 169.184 227.999 159.318 234.48 150.743C234.615 150.563 234.866 150.531 235.04 150.671ZM218.322 196.958C218.322 196.959 218.321 196.959 218.321 196.959L218.322 196.959C218.322 196.959 218.322 196.959 218.322 196.958Z" fill="#AAD5FB"/>
<path fill-rule="evenodd" clip-rule="evenodd" d="M165.541 131.335C158.714 130.051 159.371 125.119 149.065 128.092C141.385 130.254 139.284 137.28 131.932 138.767C128.125 139.577 118.475 138.564 125.959 142.077C133.508 145.59 144.798 145.59 149.787 142.753C154.776 139.983 158.255 134.916 160.158 135.929C161.471 136.672 156.614 141.266 156.614 141.266C156.614 141.266 160.487 141.064 174.403 134.916C181.033 131.943 172.368 132.619 165.541 131.335Z" fill="#AAD5FB"/>
<path fill-rule="evenodd" clip-rule="evenodd" d="M167.71 194.843C167.775 194.843 166.462 190.452 166.069 187.547C165.412 182.817 166.725 175.994 170.401 173.494C173.617 171.264 183.529 173.494 183.529 173.494C183.529 173.494 190.816 175.588 185.564 177.48C180.313 179.372 175.784 179.574 172.633 185.925C170.664 189.911 169.351 193.965 167.71 194.843Z" fill="#AAD5FB"/>
<path fill-rule="evenodd" clip-rule="evenodd" d="M196.592 187.14C196.592 187.14 197.577 184.37 197.38 182.208C196.855 177.276 194.163 174.912 194.163 174.912C194.163 174.912 194.623 179.371 193.704 178.628C192.785 177.884 193.376 173.966 193.376 173.966C193.376 173.966 191.078 170.993 187.796 170.588C184.514 170.182 180.51 172.209 180.51 172.209C180.51 172.209 178.934 171.263 176.703 171.196C172.239 171.128 169.941 173.696 169.941 173.696C169.941 173.696 173.224 172.007 178.606 174.574C182.807 176.668 186.286 178.898 188.912 181.938C191.603 185.113 196.592 187.14 196.592 187.14Z" fill="#D4EAFF"/>
<path fill-rule="evenodd" clip-rule="evenodd" d="M199.558 167.241C199.558 167.241 201.461 159.337 200.346 152.175C198.836 142.176 192.468 134.069 192.468 134.069C192.468 134.069 191.09 141.703 189.383 139.811C187.677 137.92 190.565 131.839 190.565 131.839C190.565 131.839 189.974 129.204 184.46 127.65C177.436 125.691 172.119 128.461 168.443 128.394C164.767 128.326 163.586 127.313 155.906 126.772C150.72 126.434 146.453 129.069 146.453 129.069C146.453 129.069 158.728 128.191 169.297 139.203C174.154 144.27 178.815 149.608 178.815 149.608C178.815 149.608 186.758 148.121 188.399 151.364C189.449 153.526 180.325 152.31 180.325 152.31C180.325 152.31 182.95 156.026 188.005 159.877C193.059 163.728 199.558 167.241 199.558 167.241Z" fill="#D4EAFF"/>
<path fill-rule="evenodd" clip-rule="evenodd" d="M221.06 69.249C221.276 69.2025 221.488 69.3451 221.533 69.5674C224.047 81.9614 221.202 96.9101 219.039 107.636C217.748 114.175 216.278 119.766 214.86 125.158C214.4 126.91 213.945 128.64 213.503 130.375C211.701 137.458 210.115 144.647 209.264 153.737L209.264 153.738C208.348 163.303 208.414 173.203 209.591 182.765L209.591 182.765C209.876 185.108 210.331 187.48 210.787 189.852C210.959 190.748 211.131 191.643 211.294 192.537C211.321 192.685 211.348 192.833 211.375 192.982C211.546 193.931 211.722 194.902 211.945 195.823C211.999 196.044 211.869 196.267 211.655 196.322C211.441 196.377 211.225 196.244 211.171 196.023C210.941 195.076 210.761 194.077 210.589 193.13C210.563 192.981 210.536 192.834 210.51 192.689C210.35 191.813 210.18 190.928 210.009 190.039C209.552 187.657 209.087 185.242 208.799 182.868C207.614 173.242 207.548 163.28 208.47 153.658C209.326 144.507 210.923 137.271 212.731 130.166C213.176 128.42 213.633 126.682 214.094 124.926C215.511 119.539 216.972 113.983 218.257 107.471L218.257 107.47C220.426 96.7116 223.226 81.9338 220.751 69.7358C220.706 69.5134 220.845 69.2955 221.06 69.249ZM167.77 128.693C167.773 128.466 167.955 128.285 168.175 128.289C179.972 128.496 189.719 139.37 195.121 152.387L195.121 152.387C197.535 158.208 199.483 166.777 201.063 175.018C201.863 179.191 202.567 183.267 203.191 186.878C203.804 190.433 204.34 193.537 204.814 195.838C204.859 196.06 204.722 196.279 204.506 196.326C204.29 196.373 204.078 196.231 204.033 196.009C203.561 193.714 203.02 190.582 202.402 187.004C201.776 183.382 201.071 179.305 200.28 175.177C198.699 166.934 196.764 158.443 194.387 152.711C189.023 139.785 179.472 129.31 168.162 129.111C167.941 129.107 167.766 128.92 167.77 128.693ZM180.506 172.237C180.527 172.011 180.723 171.846 180.942 171.868C185.444 172.32 189.14 175.034 191.894 178.246C194.648 181.457 196.497 185.207 197.301 187.827L197.301 187.83C197.832 189.603 198.228 191.373 198.622 193.197C198.816 194.063 199.028 195.061 198.96 196.006V196.126C198.96 196.353 198.781 196.537 198.561 196.537C198.341 196.537 198.162 196.353 198.162 196.126V195.991C198.162 195.98 198.162 195.97 198.163 195.959C198.223 195.153 198.043 194.267 197.844 193.381L197.843 193.378C197.45 191.555 197.059 189.813 196.539 188.074C195.767 185.559 193.973 181.912 191.296 178.79C188.618 175.668 185.093 173.112 180.864 172.686C180.645 172.664 180.485 172.463 180.506 172.237Z" fill="#AAD5FB"/>
<path fill-rule="evenodd" clip-rule="evenodd" d="M191.254 194.917H223.792L219.454 226.436H195.592L191.254 194.917Z" fill="#D4EAFF"/>
<path fill-rule="evenodd" clip-rule="evenodd" d="M133.086 195.871L122.885 281.322C122.885 281.322 122.145 291.2 125.518 302.067C133.251 326.928 139.174 366.854 140.161 377.803C140.161 377.803 145.837 378.297 150.609 377.721C155.462 377.145 162.619 379.12 162.619 379.12C162.619 379.12 163.031 343.31 159.411 319.272C158.013 310.052 155.133 301.491 153.077 296.14C151.596 292.353 151.431 288.154 152.501 284.285C158.506 263.293 177.592 196.859 177.592 196.859L133.086 195.871Z" fill="#4C277E"/>
<path fill-rule="evenodd" clip-rule="evenodd" d="M143.203 211.84L168.212 290.211C168.212 290.211 168.788 296.385 175.945 304.865C183.102 313.426 222.425 367.677 222.425 367.677C222.425 367.677 227.772 366.03 231.967 363.149C236.245 360.268 237.808 356.398 237.808 356.398C237.808 356.398 225.88 327.668 211.977 306.923C206.054 298.114 201.941 292.187 199.061 288.318C195.606 283.625 193.55 278.11 193.138 272.347C192.398 263.539 191.493 250.038 191.246 238.677C190.835 215.71 186.392 195.376 186.392 195.376L143.203 211.84Z" fill="#4C277E"/>
<mask id="mask1_1307_1542" style="mask-type:alpha" maskUnits="userSpaceOnUse" x="143" y="195" width="95" height="173">
<path fill-rule="evenodd" clip-rule="evenodd" d="M143.203 211.84L168.212 290.211C168.212 290.211 168.788 296.385 175.945 304.865C183.102 313.426 222.425 367.677 222.425 367.677C222.425 367.677 227.772 366.03 231.967 363.149C236.245 360.268 237.808 356.398 237.808 356.398C237.808 356.398 225.88 327.668 211.977 306.923C206.054 298.114 201.941 292.187 199.061 288.318C195.606 283.625 193.55 278.11 193.138 272.347C192.398 263.539 191.493 250.038 191.246 238.677C190.835 215.71 186.392 195.376 186.392 195.376L143.203 211.84Z" fill="#7945C1"/>
</mask>
<g mask="url(#mask1_1307_1542)">
<path fill-rule="evenodd" clip-rule="evenodd" d="M138.924 214.634C138.924 214.634 143.448 210.271 160.971 219.162C178.493 227.971 185.733 230.605 185.733 230.605C185.733 230.605 187.707 247.399 186.391 263.122C184.992 279.834 181.29 287.325 191.327 294.322C212.469 309.14 216.335 323.547 221.518 343.88C226.701 364.296 229.169 371.376 229.169 371.376L246.856 359.851L210.248 199.569L134.234 202.78L138.924 214.634Z" fill="#7945C1"/>
</g>
<path fill-rule="evenodd" clip-rule="evenodd" d="M145.187 96.3359C145.187 96.3359 125.607 116.011 113.761 127.865C107.92 133.71 101.01 138.32 93.4417 141.366C78.3048 147.54 53.543 157.584 53.543 157.584L56.0109 168.697C56.0109 168.697 82.0068 163.429 100.434 159.724C112.116 157.419 122.975 152.15 132.024 144.494C142.965 135.274 156.457 123.914 156.457 123.914L145.187 96.3359Z" fill="#970519"/>
<mask id="mask2_1307_1542" style="mask-type:alpha" maskUnits="userSpaceOnUse" x="53" y="96" width="104" height="73">
<path fill-rule="evenodd" clip-rule="evenodd" d="M145.187 96.3359C145.187 96.3359 125.607 116.011 113.761 127.865C107.92 133.71 101.01 138.32 93.4417 141.366C78.3048 147.54 53.543 157.584 53.543 157.584L56.0109 168.697C56.0109 168.697 82.0068 163.429 100.434 159.724C112.116 157.419 122.975 152.15 132.024 144.494C142.965 135.274 156.457 123.914 156.457 123.914L145.187 96.3359Z" fill="#4C277E"/>
</mask>
<g mask="url(#mask2_1307_1542)">
<path fill-rule="evenodd" clip-rule="evenodd" d="M151.441 87.4443C151.441 87.4443 143.543 106.543 130.381 125.395C122.895 136.097 110.308 145.975 98.2149 149.515C81.6796 154.372 53.9561 164.745 53.9561 164.745L44.6602 153.467L108.334 115.599L151.441 87.4443Z" fill="#D6001D"/>
</g>
<path fill-rule="evenodd" clip-rule="evenodd" d="M164.76 93.2907C155.958 87.3635 141.314 95.3487 134.322 109.426C126.013 126.22 126.177 130.747 127.905 138.65C132.512 159.231 134.98 168.698 133.335 183.022C132.101 193.724 127.823 215.622 127.823 215.622C127.823 215.622 149.212 213.399 164.678 218.338C188.946 226.159 205.728 209.859 205.728 209.859C205.728 209.859 195.774 195.535 186.807 176.93C175.783 153.962 179.815 153.304 178.334 135.44C176.935 117.658 180.061 103.581 164.76 93.2907Z" fill="#970519"/>
<mask id="mask3_1307_1542" style="mask-type:alpha" maskUnits="userSpaceOnUse" x="126" y="91" width="80" height="130">
<path fill-rule="evenodd" clip-rule="evenodd" d="M164.76 93.2907C155.958 87.3635 141.314 95.3487 134.322 109.426C126.013 126.22 126.177 130.747 127.905 138.65C132.512 159.231 134.98 168.698 133.335 183.022C132.101 193.724 127.823 215.622 127.823 215.622C127.823 215.622 149.212 213.399 164.678 218.338C188.946 226.159 205.728 209.859 205.728 209.859C205.728 209.859 195.774 195.535 186.807 176.93C175.783 153.962 179.815 153.304 178.334 135.44C176.935 117.658 180.061 103.581 164.76 93.2907Z" fill="#970519"/>
</mask>
<g mask="url(#mask3_1307_1542)">
<path fill-rule="evenodd" clip-rule="evenodd" d="M180.066 93.6993C180.066 93.6993 161.063 95.8396 163.613 115.185C165.752 131.321 156.539 137.412 141.978 137.165C120.177 136.754 168.878 230.19 168.878 230.19L122.481 228.379L120.918 170.753L114.172 110.74L137.124 77.3994L180.066 93.6993Z" fill="#D6001D"/>
</g>
<path fill-rule="evenodd" clip-rule="evenodd" d="M42.3467 156.102L36.0123 156.678C36.0123 156.678 32.3926 158.324 31.6522 160.218C30.9941 162.193 30.3359 167.38 30.3359 167.38C30.3359 167.38 32.1458 167.462 32.6394 166.556C32.9684 165.816 33.8733 164.169 33.8733 164.169L36.9995 164.416C36.9995 164.416 40.5368 165.898 39.961 163.922C39.3851 161.946 40.7014 161.206 41.195 160.959C42.1822 160.465 44.0743 160.053 45.7196 160.876C46.2954 161.041 42.3467 156.102 42.3467 156.102Z" fill="#FFB8B8"/>
<path opacity="0.2" fill-rule="evenodd" clip-rule="evenodd" d="M42.3467 156.102L36.0123 156.678C36.0123 156.678 32.3926 158.324 31.6522 160.218C30.9941 162.193 30.3359 167.38 30.3359 167.38C30.3359 167.38 32.1458 167.462 32.6394 166.556C32.9684 165.816 33.8733 164.169 33.8733 164.169L36.9995 164.416C36.9995 164.416 40.5368 165.898 39.961 163.922C39.3851 161.946 40.7014 161.206 41.195 160.959C42.1822 160.465 44.0743 160.053 45.7196 160.876C46.2954 161.041 42.3467 156.102 42.3467 156.102Z" fill="#F06666"/>
<path fill-rule="evenodd" clip-rule="evenodd" d="M54.773 168.207C54.773 168.207 57.9814 168.207 58.3104 164.997C58.9686 159.646 52.9632 158 52.9632 158C52.9632 158 43.1736 154.295 40.2121 154.377C35.6875 154.542 34.1244 155.118 30.258 155.695C24.993 156.518 23.3477 156.929 23.3477 156.929C23.3477 156.929 24.5817 158.576 25.4866 158.823C27.2142 159.317 30.258 158.658 31.9033 158.411C33.6308 158.164 36.1811 158.411 38.1554 158.905C40.1298 159.399 43.585 161.375 43.585 161.375C43.585 161.375 45.6416 162.445 44.2431 163.104C42.8446 163.68 42.68 164.174 39.2249 163.927C35.7697 163.68 34.0422 163.021 32.5614 163.762C31.4097 164.338 31.4097 165.738 31.4097 165.738C31.4097 165.738 32.8082 165.902 35.852 166.726C38.8958 167.549 39.5539 168.537 43.914 168.125C48.3563 167.549 54.773 168.207 54.773 168.207Z" fill="#FFB8B8"/>
<path fill-rule="evenodd" clip-rule="evenodd" d="M165.254 122.189C164.843 120.954 159.824 113.627 159.331 107.206C158.673 99.9617 162.621 92.5527 162.621 92.5527C162.621 92.5527 182.776 99.7971 189.769 134.125C190.18 136.266 190.674 138.077 191.003 140.711C193.306 160.057 191.25 174.052 170.848 181.461C152.174 188.211 125.438 186.812 125.438 186.812C125.438 186.812 127.083 186.153 128.07 181.872C128.893 178.58 125.438 175.287 125.438 175.287C125.438 175.287 143.7 174.299 157.932 168.701C172.164 163.103 173.974 153.801 171.259 137.007C170.108 130.009 165.254 122.271 165.254 122.189Z" fill="#D6001D"/>
<path fill-rule="evenodd" clip-rule="evenodd" d="M145.14 96.2932L145.139 96.2937C145.127 96.306 145.114 96.317 145.1 96.3267C145.065 96.3582 145.006 96.4136 144.924 96.4921C144.752 96.6568 144.482 96.9201 144.136 97.2712C143.443 97.9735 142.444 99.0261 141.308 100.343C139.033 102.978 136.211 106.662 134.17 110.708C134.063 110.922 133.956 111.136 133.85 111.348C129.059 120.928 125.324 128.396 128.349 139.23C128.392 139.384 128.302 139.544 128.148 139.587C127.994 139.63 127.834 139.54 127.791 139.386C124.706 128.335 128.534 120.682 133.305 111.142C133.42 110.912 133.536 110.681 133.652 110.448L133.653 110.447C135.724 106.343 138.579 102.618 140.87 99.9645C142.016 98.6366 143.023 97.5746 143.723 96.8645C144.074 96.5095 144.347 96.2422 144.524 96.0734C144.612 95.9893 144.677 95.9288 144.715 95.8939C144.73 95.8807 144.751 95.8612 144.767 95.849C144.77 95.8469 144.778 95.8407 144.789 95.8338C144.795 95.8299 144.812 95.8203 144.823 95.8148C144.847 95.8052 144.939 95.7879 145.007 95.7944C145.141 95.8637 145.235 96.0733 145.224 96.156C145.215 96.184 145.196 96.2229 145.188 96.2348C145.178 96.2512 145.168 96.2633 145.165 96.2659L145.165 96.2662C145.155 96.2778 145.144 96.289 145.14 96.2932ZM144.733 95.8813C144.733 95.8812 144.733 95.8815 144.732 95.882ZM149.463 169.786C149.543 169.925 149.496 170.102 149.358 170.182C145.281 172.555 139.521 174.003 134.702 174.858C129.881 175.714 125.955 175.984 125.52 175.984C125.36 175.984 125.23 175.855 125.23 175.695C125.23 175.535 125.36 175.405 125.52 175.405C125.908 175.405 129.797 175.14 134.601 174.288C139.407 173.435 145.082 172.001 149.067 169.682C149.205 169.601 149.382 169.648 149.463 169.786ZM181.52 176.334C181.621 176.458 181.603 176.641 181.479 176.742C177.81 179.746 172.124 181.879 166.689 183.383C161.56 184.802 156.615 185.671 153.722 186.18C153.544 186.211 153.374 186.241 153.211 186.27L153.21 186.27C143.871 187.882 136.982 187.682 131.291 187.517C129.694 187.471 128.191 187.427 126.754 187.427C126.594 187.427 126.464 187.297 126.464 187.138C126.464 186.978 126.594 186.848 126.754 186.848C128.21 186.848 129.725 186.892 131.332 186.938C137.018 187.103 143.836 187.3 153.112 185.7C153.273 185.671 153.443 185.641 153.62 185.61C156.513 185.101 161.433 184.236 166.534 182.825C171.958 181.324 177.542 179.217 181.112 176.294C181.236 176.193 181.419 176.211 181.52 176.334Z" fill="#4C277E"/>
<path fill-rule="evenodd" clip-rule="evenodd" d="M124.858 176.437C124.858 176.437 119.839 171.662 117.536 169.439C116.796 168.698 115.973 168.04 115.068 167.546C112.682 166.146 107.993 163.43 107.993 163.43L107.664 166.393C107.664 166.393 110.132 168.287 111.613 169.439C112.353 170.016 112.929 170.839 113.176 171.744C113.587 173.144 114.163 174.955 114.163 174.955L124.858 176.437Z" fill="#FFB8B8"/>
<path opacity="0.2" fill-rule="evenodd" clip-rule="evenodd" d="M124.858 176.437C124.858 176.437 119.839 171.662 117.536 169.439C116.796 168.698 115.973 168.04 115.068 167.546C112.682 166.146 107.993 163.43 107.993 163.43L107.664 166.393C107.664 166.393 110.132 168.287 111.613 169.439C112.353 170.016 112.929 170.839 113.176 171.744C113.587 173.144 114.163 174.955 114.163 174.955L124.858 176.437Z" fill="#F06666"/>
<path fill-rule="evenodd" clip-rule="evenodd" d="M158.922 91.1523C158.922 91.1523 155.302 95.8447 151.765 97.5734C147.98 99.4668 145.842 96.9972 145.842 96.9972L139.343 85.0605C139.343 85.0605 134.489 87.9417 132.35 86.213C129.635 84.1549 127.579 77.4868 127.085 76.005C127.003 75.8404 126.921 75.6757 126.674 75.6757C126.18 75.5934 125.028 75.2641 124.288 75.0994C123.877 75.0171 123.548 74.6055 123.63 74.1116C123.959 72.3005 124.782 67.8551 125.111 66.4556C125.111 66.3733 122.889 59.6229 124.288 55.0951C125.604 50.6497 129.224 48.3447 129.224 48.3447L147.569 47.5215L156.454 60.1991L155.631 76.8282L160.403 89.6705L158.922 91.1523Z" fill="#FFB8B8"/>
<mask id="mask4_1307_1542" style="mask-type:alpha" maskUnits="userSpaceOnUse" x="123" y="47" width="38" height="52">
<path fill-rule="evenodd" clip-rule="evenodd" d="M158.922 91.1523C158.922 91.1523 155.302 95.8447 151.765 97.5734C147.98 99.4668 145.842 96.9972 145.842 96.9972L139.343 85.0605C139.343 85.0605 134.489 87.9417 132.35 86.213C129.635 84.1549 127.579 77.4868 127.085 76.005C127.003 75.8404 126.921 75.6757 126.674 75.6757C126.18 75.5934 125.028 75.2641 124.288 75.0994C123.877 75.0171 123.548 74.6055 123.63 74.1116C123.959 72.3005 124.782 67.8551 125.111 66.4556C125.111 66.3733 122.889 59.6229 124.288 55.0951C125.604 50.6497 129.224 48.3447 129.224 48.3447L147.569 47.5215L156.454 60.1991L155.631 76.8282L160.403 89.6705L158.922 91.1523Z" fill="#FFB8B8"/>
</mask>
<g mask="url(#mask4_1307_1542)">
<path fill-rule="evenodd" clip-rule="evenodd" d="M130.125 85.9688C130.125 85.9688 133.662 89.6733 138.681 85.8042C143.699 82.0173 144.275 79.877 144.275 79.877C144.275 79.877 143.946 87.039 145.838 91.9783C148.47 99.0581 149.869 102.104 149.869 102.104L130.125 85.9688Z" fill="#FFB8B8"/>
<path fill-rule="evenodd" clip-rule="evenodd" d="M126.504 79.1333L127.82 81.109C127.82 81.109 129.301 80.7797 130.453 79.7918C132.016 78.557 132.509 77.0752 132.509 77.0752C132.509 77.0752 129.219 79.3802 126.504 79.1333Z" fill="#FAEDFE"/>
<path fill-rule="evenodd" clip-rule="evenodd" d="M132.788 77.1701L132.514 77.0786C132.788 77.1701 132.788 77.1702 132.788 77.1703L132.788 77.1705L132.788 77.1711L132.787 77.1727L132.786 77.1774L132.78 77.1932C132.776 77.2064 132.769 77.2251 132.76 77.2488C132.741 77.2962 132.714 77.3635 132.676 77.4475C132.601 77.6154 132.485 77.8502 132.319 78.1241C131.987 78.6708 131.453 79.3766 130.641 80.0188C130.034 80.5384 129.346 80.8809 128.816 81.093C128.55 81.1998 128.32 81.2747 128.156 81.3231C128.074 81.3474 128.008 81.365 127.962 81.3768C127.939 81.3826 127.921 81.387 127.909 81.39L127.894 81.3935L127.889 81.3945L127.888 81.3948L127.888 81.3949L127.887 81.3949C127.887 81.3949 127.887 81.395 127.825 81.1123L127.887 81.395C127.771 81.4209 127.65 81.3724 127.584 81.2729L126.267 79.2972C126.206 79.2044 126.202 79.0844 126.259 78.9886C126.317 78.8928 126.423 78.8382 126.535 78.8483C127.813 78.9646 129.256 78.4779 130.406 77.9381C130.976 77.6707 131.463 77.3955 131.807 77.1872C131.979 77.0831 132.115 76.9959 132.208 76.9351C132.254 76.9047 132.29 76.8809 132.313 76.8649L132.34 76.8469L132.346 76.8425L132.347 76.8416L132.348 76.8415L132.348 76.8414L132.348 76.8414C132.45 76.7698 132.587 76.7718 132.687 76.8465C132.787 76.9211 132.828 77.0516 132.788 77.1701ZM127.951 80.7798C127.964 80.776 127.978 80.772 127.992 80.7678C128.142 80.7236 128.354 80.6544 128.601 80.5554C129.098 80.3565 129.725 80.0416 130.269 79.5755L130.278 79.568C131.007 78.9921 131.493 78.3601 131.799 77.8639C131.481 78.0467 131.09 78.2566 130.652 78.4623C129.634 78.9401 128.326 79.4113 127.06 79.443L127.951 80.7798Z" fill="#DE1414"/>
</g>
<path fill-rule="evenodd" clip-rule="evenodd" d="M165.333 46.1227C153.487 29.9875 137.61 34.9269 133.579 36.0794C120.828 39.7839 119.182 51.9676 119.265 58.3064C119.265 59.2943 119.758 60.2821 120.499 60.9407C121.239 61.5993 122.226 61.9286 123.296 61.8463C124.859 61.6816 126.915 61.4347 128.972 61.0231C131.275 60.6114 133.579 59.6236 135.471 59.3766C135.882 59.2943 134.319 58.0594 133.414 56.9069C132.098 55.2605 131.193 53.1201 131.193 53.1201C131.193 53.1201 132.345 56.3307 138.597 59.2943C140.407 60.1998 142.381 63.9866 142.381 63.9866C142.381 63.9866 144.931 59.7059 147.728 61.8463C148.716 62.5872 149.045 64.2336 148.798 65.5508C148.304 68.679 145.343 68.432 145.343 68.5144C146.577 74.4416 147.728 77.8168 150.608 82.0152C155.461 88.9303 159.492 91.2353 159.492 91.2353C159.492 91.2353 164.264 92.7995 169.117 96.5863C176.11 101.937 181.622 111.569 181.622 111.569C181.622 111.569 183.761 111.075 186.475 110.087C189.19 109.099 191.576 108.111 191.576 108.111C191.576 108.111 187.627 104.407 185.982 103.007C184.336 101.608 179.894 98.2327 179.894 98.2327C179.894 98.2327 186.229 101.526 188.285 102.349C190.342 103.172 196.347 104.654 196.347 104.654C196.347 104.654 198.733 103.172 199.72 102.266C203.34 98.8913 209.345 94.4459 211.813 84.5672C211.895 84.1556 208.358 86.8722 202.928 87.4485C192.645 88.848 181.868 82.2622 181.868 82.2622C181.868 82.2622 196.183 87.3662 205.643 81.5213C211.731 77.7344 213.87 74.4416 213.87 74.4416C213.87 74.4416 214.199 72.7128 214.199 71.8073C213.458 47.7691 195.278 54.108 187.709 56.3307C177.262 59.2943 168.212 50.1565 165.333 46.1227Z" fill="#212122"/>
<mask id="mask5_1307_1542" style="mask-type:alpha" maskUnits="userSpaceOnUse" x="119" y="34" width="96" height="78">
<path fill-rule="evenodd" clip-rule="evenodd" d="M165.333 46.1227C153.487 29.9875 137.61 34.9269 133.579 36.0794C120.828 39.7839 119.182 51.9676 119.265 58.3064C119.265 59.2943 119.758 60.2821 120.499 60.9407C121.239 61.5993 122.226 61.9286 123.296 61.8463C124.859 61.6816 126.915 61.4347 128.972 61.0231C131.275 60.6114 133.579 59.6236 135.471 59.3766C135.882 59.2943 134.319 58.0594 133.414 56.9069C132.098 55.2605 131.193 53.1201 131.193 53.1201C131.193 53.1201 132.345 56.3307 138.597 59.2943C140.407 60.1998 142.381 63.9866 142.381 63.9866C142.381 63.9866 144.931 59.7059 147.728 61.8463C148.716 62.5872 149.045 64.2336 148.798 65.5508C148.304 68.679 145.343 68.432 145.343 68.5144C146.577 74.4416 147.728 77.8168 150.608 82.0152C155.461 88.9303 159.492 91.2353 159.492 91.2353C159.492 91.2353 164.264 92.7995 169.117 96.5863C176.11 101.937 181.622 111.569 181.622 111.569C181.622 111.569 183.761 111.075 186.475 110.087C189.19 109.099 191.576 108.111 191.576 108.111C191.576 108.111 187.627 104.407 185.982 103.007C184.336 101.608 179.894 98.2327 179.894 98.2327C179.894 98.2327 186.229 101.526 188.285 102.349C190.342 103.172 196.347 104.654 196.347 104.654C196.347 104.654 198.733 103.172 199.72 102.266C203.34 98.8913 209.345 94.4459 211.813 84.5672C211.895 84.1556 208.358 86.8722 202.928 87.4485C192.645 88.848 181.868 82.2622 181.868 82.2622C181.868 82.2622 196.183 87.3662 205.643 81.5213C211.731 77.7344 213.87 74.4416 213.87 74.4416C213.87 74.4416 214.199 72.7128 214.199 71.8073C213.458 47.7691 195.278 54.108 187.709 56.3307C177.262 59.2943 168.212 50.1565 165.333 46.1227Z" fill="#212122"/>
</mask>
<g mask="url(#mask5_1307_1542)">
<mask id="mask6_1307_1542" style="mask-type:alpha" maskUnits="userSpaceOnUse" x="119" y="33" width="96" height="79">
<path fill-rule="evenodd" clip-rule="evenodd" d="M165.544 45.608C153.698 29.4729 137.821 34.4122 133.79 35.5647C121.038 39.2692 119.393 51.453 119.475 57.7918C119.475 58.7796 119.969 59.7675 120.709 60.4261C121.45 61.0846 122.437 61.414 123.506 61.3316C125.069 61.167 127.126 60.92 129.183 60.5084C131.486 60.0968 133.79 59.1089 135.682 58.862C136.093 58.7796 134.53 57.5448 133.625 56.3923C132.309 54.7458 131.404 52.6054 131.404 52.6054C131.404 52.6054 132.556 55.816 138.808 58.7796C140.618 59.6852 142.592 63.472 142.592 63.472C142.592 63.472 145.142 59.1913 147.939 61.3316C148.926 62.0725 149.256 63.719 149.009 65.0361C148.515 68.1644 145.554 67.9174 145.554 67.9997C146.788 73.9269 147.939 77.3022 150.819 81.5006C155.672 88.4157 159.703 90.7207 159.703 90.7207C159.703 90.7207 164.475 92.2848 169.328 96.0717C176.321 101.423 181.833 111.054 181.833 111.054C181.833 111.054 183.971 110.56 186.686 109.572C189.401 108.585 191.787 107.597 191.787 107.597C191.787 107.597 187.838 103.892 186.193 102.493C184.547 101.093 180.105 97.7181 180.105 97.7181C180.105 97.7181 186.439 101.011 188.496 101.834C190.553 102.657 196.558 104.139 196.558 104.139C196.558 104.139 198.944 102.657 199.931 101.752C203.551 98.3766 209.556 93.9312 212.024 84.0526C212.106 83.641 208.569 86.3576 203.139 86.9338C192.856 88.3333 182.079 81.7476 182.079 81.7476C182.079 81.7476 196.394 86.8515 205.854 81.0066C211.942 77.2198 214.081 73.9269 214.081 73.9269C214.081 73.9269 214.41 72.1982 214.41 71.2926C213.669 47.2545 195.489 53.5933 187.92 55.816C177.473 58.7796 168.423 49.6418 165.544 45.608Z" fill="#7945C1"/>
</mask>
<g mask="url(#mask6_1307_1542)">
<path opacity="0.2" fill-rule="evenodd" clip-rule="evenodd" d="M143.22 29.3784C143.362 29.4512 143.418 29.6256 143.346 29.768C142.447 31.5268 142.45 34.3439 143.193 37.1881C143.934 40.0233 145.392 42.8044 147.309 44.4832C148.071 45.1476 149.411 45.7675 151.161 46.5449C151.281 46.5985 151.404 46.6527 151.528 46.7077C153.184 47.4423 155.138 48.3089 157.184 49.4603C161.588 51.9388 166.431 55.7426 169.754 62.4364L169.755 62.4367C174.396 71.8078 185.083 78.6704 195.032 79.8947C200.936 80.587 206.554 79.2592 210.504 75.2656C213.329 72.4097 215.329 68.1627 215.956 62.246C215.428 63.4011 214.849 64.5548 214.198 65.6556C212.86 67.9195 211.207 69.9774 209.058 71.3692C209.058 71.3693 209.058 71.3695 209.058 71.3697L208.9 71.1267L209.059 71.3687C209.059 71.3688 209.059 71.369 209.058 71.3692C207.704 72.2584 205.366 73.1527 203.005 73.8234C200.642 74.4946 198.205 74.9561 196.643 74.9561L196.639 74.9561C190.043 74.8725 186.114 72.4369 180.832 68.2248L180.83 68.2235C177.787 65.7627 175.626 62.5347 173.511 59.3395L173.391 59.1581C171.309 56.0122 169.258 52.9123 166.429 50.5202L166.424 50.5165L166.424 50.5164C164.403 48.7362 162.054 47.5189 159.534 46.7055L159.534 46.7054C158.972 46.523 158.393 46.3495 157.808 46.1744C156.837 45.8834 155.852 45.5881 154.906 45.2405C153.378 44.6787 151.902 43.9642 150.631 42.8619L150.628 42.8592L150.628 42.8592C149.061 41.4608 148.135 39.8113 147.456 38.0769C147.031 36.9898 146.696 35.8464 146.363 34.7127C146.172 34.0583 145.981 33.4071 145.774 32.7717C145.725 32.6197 145.808 32.4563 145.96 32.4069C146.112 32.3574 146.275 32.4405 146.325 32.5926C146.543 33.2641 146.738 33.9307 146.931 34.5906C147.257 35.7034 147.577 36.7976 147.995 37.8659C148.653 39.5472 149.536 41.1078 151.012 42.4258C151.012 42.4254 151.011 42.4249 151.011 42.4245L150.821 42.6432L151.014 42.4272C151.013 42.4267 151.013 42.4263 151.012 42.4258C152.209 43.4631 153.612 44.1477 155.106 44.697C156.04 45.0403 156.989 45.3246 157.945 45.6105C158.533 45.7865 159.122 45.9631 159.712 46.1545L159.623 46.43L159.713 46.1546C159.712 46.1546 159.712 46.1545 159.712 46.1545M166.805 50.0799C169.697 52.526 171.787 55.6857 173.855 58.8095C173.901 58.8796 173.947 58.9498 173.994 59.0199C176.115 62.2247 178.231 65.3763 181.193 67.7724C186.44 71.9566 190.243 74.2955 196.644 74.3771C198.126 74.3767 200.501 73.9327 202.847 73.2664C205.195 72.5995 207.463 71.724 208.741 70.8847L208.743 70.8837C210.789 69.5588 212.386 67.5831 213.7 65.3608C214.624 63.7984 215.403 62.1229 216.099 60.4789C216.206 58.5947 216.183 56.5559 216.015 54.355C216.003 54.1955 216.123 54.0564 216.282 54.0443C216.441 54.0321 216.581 54.1515 216.593 54.3109C216.717 55.9353 216.762 57.4754 216.736 58.9336C216.804 58.7628 216.873 58.5928 216.94 58.4239C216.999 58.2754 217.168 58.2032 217.316 58.2625C217.465 58.3219 217.537 58.4904 217.478 58.6388C217.221 59.2822 216.953 59.9437 216.671 60.6129C216.26 67.5112 214.124 72.4301 210.916 75.6728C206.805 79.8288 200.988 81.1765 194.964 80.4697L194.962 80.4695C184.839 79.224 173.972 72.2565 169.236 62.6937C165.978 56.1338 161.237 52.4052 156.9 49.9649C154.879 48.8275 152.948 47.9713 151.29 47.2358C151.167 47.1812 151.046 47.1273 150.926 47.074C149.207 46.3105 147.771 45.6544 146.929 44.9194L146.928 44.9191C144.897 43.1403 143.393 40.2412 142.633 37.3346C141.875 34.4368 141.836 31.4502 142.83 29.5046C142.903 29.3622 143.077 29.3057 143.22 29.3784M138.165 30.3349C138.324 30.3418 138.448 30.4769 138.441 30.6367C138.423 31.0497 138.311 31.5176 138.185 32.0422C138.155 32.1637 138.126 32.2883 138.096 32.4159C137.935 33.11 137.766 33.9457 137.711 35.0023C137.6 37.1134 137.94 40.1378 139.737 44.6757C140.775 47.2328 142.716 49.044 145.014 50.5293C146.638 51.5794 148.416 52.4528 150.167 53.3128C150.905 53.6752 151.638 54.0352 152.352 54.4051L152.355 54.4064C155.171 55.8984 157.687 57.655 159.535 60.4289L159.537 60.4321L159.537 60.4321C161.023 62.7277 162.297 65.6672 163.599 68.6724C163.969 69.5257 164.341 70.3843 164.721 71.235C166.449 75.1055 168.342 78.8222 170.928 81.2893C174.118 84.3171 180.587 89.2744 187.96 92.2726C195.338 95.2731 203.547 96.2846 210.297 91.5525C210.428 91.4607 210.608 91.4925 210.7 91.6234C210.792 91.7543 210.76 91.9349 210.629 92.0267C203.641 96.9263 195.191 95.8386 187.741 92.809C180.286 89.7771 173.757 84.7734 170.53 81.7093L170.529 81.7088C167.851 79.1543 165.919 75.3388 164.192 71.4711C163.804 70.603 163.427 69.7327 163.054 68.8723C161.756 65.8762 160.509 62.9993 159.052 60.7484C157.281 58.0904 154.862 56.3899 152.085 54.9188C151.394 54.5612 150.675 54.208 149.946 53.8495C148.182 52.9831 146.354 52.0851 144.699 51.0156C142.349 49.4965 140.301 47.6034 139.2 44.8924L139.199 44.8902C137.377 40.291 137.017 37.1827 137.133 34.9721C137.191 33.8678 137.367 32.9953 137.532 32.2848C137.565 32.1418 137.597 32.0072 137.628 31.88C137.752 31.361 137.847 30.9634 137.863 30.6115C137.87 30.4518 138.005 30.3279 138.165 30.3349ZM149.062 31.0375C149.075 30.9921 149.099 30.9492 149.135 30.9134C149.142 30.9066 149.157 30.892 149.175 30.878L149.175 30.8779C149.182 30.8727 149.206 30.8539 149.241 30.8389C149.258 30.8317 149.299 30.816 149.353 30.8154C149.416 30.8149 149.506 30.8361 149.575 30.9146C149.635 30.9832 149.644 31.0574 149.646 31.0903C149.648 31.1262 149.643 31.1544 149.64 31.1681C149.634 31.196 149.625 31.2172 149.622 31.2246C149.614 31.2426 149.605 31.2579 149.601 31.2651C149.589 31.2871 149.568 31.3206 149.549 31.3502C149.544 31.3587 149.539 31.3669 149.534 31.3743C149.509 31.4151 149.485 31.4539 149.469 31.4853C149.468 31.487 149.467 31.4886 149.466 31.4901C149.47 31.5807 149.485 31.6891 149.503 31.818L149.505 31.8292C149.523 31.9564 149.544 32.1057 149.547 32.2426C149.706 33.0908 150.093 33.8699 150.503 34.6913C151.713 37.0319 153.489 38.9727 155.676 40.5127C157.318 41.6627 159.1 42.7953 160.952 43.4399C161.951 43.7866 162.951 44.0726 163.948 44.3517C164.058 44.3824 164.168 44.4131 164.278 44.4437C165.162 44.6907 166.045 44.937 166.911 45.2182C168.861 45.8515 170.751 46.6682 172.477 48.1006L172.48 48.1028C175.241 50.4502 177.263 53.4502 179.261 56.4159C179.462 56.7142 179.662 57.0121 179.864 57.309C182.075 60.5715 184.351 63.7177 187.673 65.9469L187.673 65.9471C192.843 69.423 199.313 69.5915 204.989 66.8329C210.075 64.328 213.068 58.6419 210.29 53.3983C210.215 53.2571 210.269 53.0818 210.41 53.007C210.551 52.9321 210.726 52.9859 210.801 53.1272C213.781 58.75 210.523 64.7534 205.244 67.3527L205.243 67.3533C199.402 70.1923 192.709 70.0312 187.35 66.4276C183.925 64.1292 181.595 60.8954 179.384 57.6339C179.184 57.338 178.984 57.042 178.785 56.7463C176.779 53.7702 174.803 50.8377 172.106 48.5451C170.459 47.1793 168.648 46.391 166.732 45.769C165.878 45.4917 165.008 45.2488 164.122 45.0014C164.012 44.9708 163.902 44.9401 163.792 44.9093C162.794 44.6301 161.779 44.3399 160.762 43.9869L160.762 43.9868C158.83 43.3143 156.993 42.1419 155.344 40.9869L155.343 40.9865C153.088 39.3986 151.245 37.3887 149.988 34.9555L149.986 34.952L149.986 34.952L149.977 34.9346C149.572 34.1231 149.145 33.2686 148.973 32.3223C148.97 32.3052 148.968 32.2879 148.968 32.2706C148.968 32.1718 148.951 32.0498 148.93 31.8999L148.928 31.8888C148.909 31.7529 148.886 31.5916 148.886 31.4473C148.886 31.3795 148.908 31.3226 148.917 31.3001C148.929 31.2691 148.944 31.2391 148.957 31.2138C148.984 31.1629 149.017 31.1091 149.043 31.0676C149.05 31.0563 149.056 31.0464 149.062 31.0375ZM149.455 31.5123C149.455 31.512 149.456 31.5115 149.456 31.5109C149.455 31.5152 149.454 31.5159 149.455 31.5123ZM140.715 32.0794C140.866 32.1319 140.946 32.2969 140.893 32.4479C140.263 34.261 140.332 36.9475 141.395 39.8262C142.456 42.6979 144.501 45.7398 147.789 48.2582L147.79 48.2596C149.573 49.6474 151.581 50.6162 153.609 51.5945C154.073 51.8184 154.538 52.0428 155.001 52.2728C157.475 53.5005 159.889 54.8817 161.741 57.1973C162.827 58.5354 163.701 60.0151 164.506 61.5233C164.85 62.1673 165.178 62.8096 165.504 63.4489C165.95 64.322 166.393 65.1893 166.869 66.0468M147.435 48.7172C144.06 46.1317 141.951 42.9998 140.852 40.0269C139.756 37.0607 139.66 34.2316 140.346 32.2578C140.399 32.1068 140.564 32.0269 140.715 32.0794M133.845 32.1795C133.987 32.2546 134.04 32.4298 133.965 32.5711C130.748 38.6274 132.763 43.9498 133.469 45.8149C133.507 45.9142 133.541 46.0037 133.57 46.083L133.57 46.0834C135.361 50.9708 138.124 54.7111 142.273 57.8051C145.159 59.9498 147.914 62.2837 149.755 65.4654C151.286 68.0776 152.308 70.8672 153.316 73.6201C153.509 74.1496 153.703 74.6778 153.899 75.2032C155.121 78.4709 156.465 81.6426 158.777 84.4432L158.777 84.4435C162.002 88.3597 166.143 91.1871 170.395 94.0906C171.688 94.9733 172.991 95.863 174.281 96.7924C179.801 100.767 185.038 105.439 188.029 113.338C188.085 113.487 188.01 113.654 187.861 113.711C187.711 113.768 187.544 113.692 187.487 113.543C184.555 105.8 179.426 101.211 173.943 97.2623C172.68 96.3528 171.395 95.4757 170.113 94.6006C165.847 91.688 161.613 88.7978 158.331 84.8119C155.953 81.9322 154.582 78.6828 153.357 75.406C153.158 74.873 152.962 74.3397 152.767 73.8071C151.759 71.0541 150.758 68.321 149.255 65.7575L149.254 65.7561C147.475 62.6817 144.801 60.4057 141.928 58.2698L141.928 58.2696C137.686 55.1071 134.855 51.274 133.027 46.2829C133.027 46.2828 133.027 46.2827 133.026 46.2826L133.298 46.1832L133.027 46.2831C133.027 46.283 133.027 46.283 133.027 46.2829C132.998 46.2039 132.963 46.1141 132.925 46.0138C132.213 44.1339 130.111 38.5917 133.454 32.2994C133.529 32.1582 133.704 32.1045 133.845 32.1795ZM134.845 32.8066C134.872 32.8081 134.899 32.8059 134.925 32.8C134.901 32.8057 134.874 32.8085 134.845 32.8066ZM134.58 32.5862C134.557 32.4913 134.582 32.387 134.657 32.3129C134.693 32.2765 134.813 32.1849 134.971 32.2482C135.081 32.2922 135.122 32.3843 135.128 32.3995L135.129 32.4004C135.149 32.4446 135.154 32.4861 135.154 32.4945L135.155 32.4955C135.158 32.5238 135.159 32.5555 135.159 32.5803C135.16 32.6352 135.158 32.7139 135.155 32.8096C135.149 32.9749 135.139 33.2058 135.126 33.486C135.124 33.5331 135.122 33.5816 135.12 33.6314C135.089 34.3257 135.048 35.2848 135.027 36.3306C134.986 38.4385 135.03 40.8444 135.388 42.1554L135.388 42.1581L135.388 42.1581C137.087 48.6352 141.203 51.5475 144.568 53.847L144.569 53.8478C144.867 54.054 145.16 54.2549 145.447 54.4521C148.477 56.532 150.915 58.2052 153.275 61.4054L153.276 61.4064C154.988 63.7466 156.398 67.0948 157.693 70.4567C157.985 71.2163 158.272 71.9765 158.555 72.7269C159.531 75.3159 160.463 77.7887 161.444 79.7217C162.651 82.0963 165.221 84.9055 168.661 87.6345C172.095 90.3588 176.375 92.9854 180.974 95.0026C190.194 99.0461 200.602 100.602 208.084 95.7452C208.219 95.6581 208.398 95.6963 208.485 95.8304C208.572 95.9645 208.534 96.1438 208.4 96.2309C200.663 101.253 190.011 99.598 180.742 95.5329C176.097 93.4957 171.774 90.8433 168.301 88.0881C164.833 85.3375 162.19 82.4665 160.928 79.984L160.928 79.984C159.931 78.0198 158.983 75.5047 158.005 72.9097C157.724 72.1643 157.44 71.4122 157.152 70.6648C155.856 67.2969 154.469 64.0183 152.809 61.7485C150.508 58.6301 148.148 57.009 145.112 54.9244C144.827 54.7291 144.537 54.5297 144.24 54.3247C140.859 52.0142 136.585 48.9996 134.828 42.3063C134.446 40.9005 134.408 38.4091 134.448 36.3193C134.469 35.2659 134.51 34.3007 134.541 33.6058C134.543 33.5555 134.546 33.5067 134.548 33.4594C134.56 33.1789 134.57 32.9519 134.576 32.7901C134.579 32.6949 134.58 32.6273 134.58 32.5862ZM130.468 33.2225C130.438 33.3227 130.403 33.4375 130.364 33.567L130.349 33.6185C130.096 34.4539 129.684 35.8188 129.323 37.5097C128.589 40.9551 128.064 45.7904 129.568 50.3083L129.569 50.3095C131.477 55.9556 133.986 59.6518 139.174 62.2478C139.317 62.3194 139.491 62.2615 139.563 62.1185C139.634 61.9755 139.576 61.8015 139.433 61.73C134.421 59.2222 131.993 55.6742 130.118 50.1248C128.661 45.7521 129.164 41.0382 129.89 37.6304C130.245 35.9633 130.652 34.6175 130.904 33.784L130.919 33.7345C130.981 33.5278 131.034 33.3516 131.073 33.2126C131.11 33.0805 131.141 32.9601 131.151 32.8757C131.154 32.8532 131.156 32.8224 131.154 32.7891C131.153 32.7667 131.147 32.6903 131.094 32.617C131.063 32.5735 131.013 32.5305 130.945 32.508C130.88 32.4863 130.82 32.4915 130.778 32.5017C130.706 32.5196 130.657 32.56 130.64 32.5747C130.597 32.6108 130.56 32.658 130.531 32.696C130.5 32.7389 130.463 32.7919 130.423 32.8534C130.345 32.9728 130.367 33.1283 130.468 33.2225ZM129.895 33.6417C130.001 33.761 129.991 33.944 129.872 34.0506C124.555 38.8026 122.956 44.3975 123.048 49.3265C123.139 54.2671 124.929 58.5316 126.376 60.585C126.755 61.1004 127.305 61.2516 128.001 61.3745C128.076 61.3876 128.152 61.4004 128.229 61.4134C128.851 61.5177 129.57 61.6381 130.179 62.0848C130.181 62.086 130.182 62.0872 130.184 62.0883C130.185 62.0896 130.187 62.0909 130.189 62.0922C130.583 62.4076 130.978 62.6453 131.391 62.8932C131.406 62.9025 131.421 62.9131 131.434 62.925C131.438 62.9266 131.458 62.9351 131.503 62.9458C131.549 62.9566 131.592 62.9637 131.641 62.972C131.673 62.9773 131.707 62.9831 131.748 62.9907C131.792 62.999 131.843 63.0096 131.891 63.0243C131.937 63.0381 132 63.0611 132.059 63.1032C132.121 63.1484 132.198 63.231 132.213 63.3584C132.227 63.4762 132.18 63.5718 132.141 63.6312C132.052 63.7643 131.872 63.8003 131.739 63.7117C131.682 63.6733 131.642 63.6179 131.623 63.5566C131.608 63.5539 131.591 63.551 131.572 63.5478C131.51 63.5373 131.433 63.5241 131.371 63.5095C131.297 63.4921 131.171 63.4586 131.07 63.3761C130.669 63.1352 130.251 62.8831 129.832 62.5482C129.342 62.191 128.768 62.093 128.132 61.9847C128.056 61.9717 127.979 61.9585 127.901 61.9447C127.199 61.8209 126.434 61.643 125.908 60.9252L125.905 60.921L125.905 60.921C124.391 58.7751 122.562 54.3971 122.469 49.3372C122.375 44.2641 124.026 38.4985 129.486 33.6188C129.605 33.5123 129.788 33.5225 129.895 33.6417ZM129.589 35.4831C129.679 35.6153 129.645 35.7954 129.512 35.8853C127.922 36.9658 126.914 38.7005 126.377 40.7872C125.839 42.8743 125.779 45.2932 126.069 47.7023C126.359 50.11 126.997 52.4942 127.846 54.5073C128.698 56.5269 129.75 58.1448 130.85 59.0486L130.852 59.0509C131.406 59.5173 132.185 60.2399 133.028 61.0222C133.385 61.3533 133.754 61.6952 134.121 62.0329C135.371 63.1797 136.607 64.2728 137.405 64.7922C137.539 64.8793 137.577 65.0587 137.49 65.1927C137.403 65.3268 137.223 65.3647 137.089 65.2776C136.242 64.7267 134.969 63.5971 133.73 62.4595C133.354 62.1142 132.98 61.7676 132.62 61.434C131.784 60.6579 131.023 59.9519 130.481 59.4948C129.277 58.5051 128.181 56.7895 127.313 54.7323C126.442 52.6678 125.79 50.231 125.494 47.7715C125.198 45.3132 125.256 42.8185 125.816 40.6428C126.376 38.4668 127.445 36.5896 129.187 35.4063C129.319 35.3164 129.499 35.3508 129.589 35.4831ZM182.892 50.3713C182.901 50.3872 182.91 50.4035 182.917 50.4167C182.941 50.465 182.95 50.5167 182.946 50.5669C182.949 50.5758 182.952 50.5851 182.955 50.5948C182.995 50.7247 183.055 50.9064 183.097 51.0309C183.101 51.0423 183.104 51.0539 183.106 51.0656C183.18 51.4342 183.327 51.7313 183.492 52.0631C183.495 52.0682 183.497 52.0734 183.5 52.0786C183.984 53.21 184.632 54.3451 185.363 55.4016C187.548 58.479 190.708 60.8322 194.279 62.2128L194.28 62.2132C197.06 63.3017 200.421 63.4395 203.155 62.4374C205.873 61.441 207.964 59.3248 208.282 55.8741C208.363 54.6664 208.281 53.5494 207.964 52.4367C207.92 52.2829 208.009 52.1227 208.163 52.0788C208.316 52.0349 208.477 52.124 208.52 52.2777C208.861 53.4688 208.944 54.6557 208.86 55.9163L208.86 55.9235L208.859 55.9235C208.519 59.6328 206.25 61.9197 203.354 62.9811C200.474 64.0369 196.966 63.8867 194.07 62.7527C190.402 61.3344 187.146 58.9137 184.889 55.7354L184.887 55.7325C184.14 54.6515 183.473 53.4848 182.971 52.3144L182.969 52.3114C182.809 51.9918 182.633 51.6385 182.542 51.1972C182.501 51.0748 182.442 50.8966 182.401 50.765C182.382 50.7019 182.361 50.6318 182.353 50.5861L182.352 50.5853C182.351 50.5765 182.345 50.5455 182.346 50.5096C182.346 50.4985 182.347 50.4797 182.352 50.457C182.356 50.4374 182.366 50.3944 182.398 50.3491C182.434 50.2966 182.5 50.2398 182.597 50.2264C182.682 50.2146 182.747 50.2434 182.777 50.2598C182.83 50.2889 182.861 50.3279 182.867 50.336L182.868 50.3367C182.879 50.3508 182.887 50.3636 182.892 50.3713Z" fill="#767676"/>
</g>
</g>
<path fill-rule="evenodd" clip-rule="evenodd" d="M129.635 67.775C130.046 67.6926 130.293 67.281 130.211 66.8694C130.129 66.4578 129.717 66.2108 129.306 66.2931C128.977 66.3754 128.565 66.4578 128.154 66.5401C127.743 66.6224 127.496 67.034 127.578 67.4457C127.661 67.8573 128.072 68.1042 128.483 68.0219C128.894 67.9396 129.306 67.775 129.635 67.775Z" fill="#4C277E"/>
<path d="M213.96 80.4532C211.41 81.935 208.777 83.2522 205.98 84.2401C203.265 85.2279 200.386 85.7219 197.507 85.7219C194.627 85.7219 191.913 85.0633 189.28 83.9931C186.648 82.9229 184.18 81.4411 181.794 79.877L180.066 82.7582C182.699 84.1577 185.496 85.4749 188.457 86.3804C191.419 87.286 194.545 87.6976 197.589 87.3683C200.633 87.1213 203.594 86.2158 206.309 84.9809C209.024 83.7461 211.574 82.0997 213.96 80.4532Z" fill="#212122"/>
<path d="M155.137 91.9734C152.011 89.0921 150.119 85.1406 149.296 81.1892C148.392 77.1554 148.392 72.9569 148.721 68.8408H145.348C145.594 73.2039 146.17 77.567 147.651 81.6831C149.132 85.7169 151.682 89.5037 155.137 91.9734Z" fill="#212122"/>
<path d="M131.774 64.7312C130.87 64.4019 129.965 63.9902 128.895 63.9902C127.826 63.9902 126.839 64.3195 125.934 64.6488L126.263 65.3897C127.085 64.8958 127.908 64.4842 128.895 64.4018C129.882 64.3195 130.87 64.4842 131.774 64.7312Z" fill="#4C277E"/>
<path d="M56.1537 138.402L73.8407 183.762C74.3343 184.997 75.5683 185.738 76.8023 185.573L112.834 181.704C113.246 181.21 113.493 181.045 113.739 180.716C114.068 180.304 114.151 179.81 113.986 179.317L97.0396 133.957C96.546 132.722 95.312 131.981 94.078 132.146L58.128 136.427C57.6344 136.509 57.3054 136.838 57.0586 137.168C56.565 137.497 55.9891 137.908 56.1537 138.402Z" fill="#AAD5FB"/>
<path d="M56.007 139.308L72.9537 184.667C73.4473 185.902 74.6813 186.643 75.9152 186.478L111.865 182.198C112.852 182.115 113.428 181.127 113.099 180.222L96.1525 134.862C95.6589 133.627 94.4249 132.886 93.191 133.051L57.241 137.332C56.2538 137.414 55.678 138.402 56.007 139.308Z" fill="#D4EAFF"/>
<path d="M62.505 145.646C61.8468 145.893 61.0241 145.563 60.7773 144.905L59.3788 141.529C59.132 140.871 59.4611 140.048 60.1192 139.801C60.7774 139.554 61.6 139.883 61.8468 140.542L63.2453 143.917C63.5744 144.575 63.2453 145.399 62.505 145.646Z" fill="#AAD5FB"/>
<path d="M61.4154 142.341C61.8187 142.046 61.8629 141.419 61.5141 140.942C61.1652 140.466 60.5554 140.318 60.1521 140.614C59.7488 140.909 59.7047 141.535 60.0535 142.012C60.4023 142.489 61.0121 142.636 61.4154 142.341Z" fill="#2998FF"/>
<path d="M49.4222 140.797L49.34 140.715C48.9286 140.468 48.435 140.55 48.1882 140.962L34.2031 163.354C34.9435 163.271 35.6016 163.354 36.2598 163.518L49.7513 141.95C49.9158 141.538 49.7513 141.044 49.4222 140.797Z" fill="#D4EAFF"/>
<path d="M32.5579 165.736L30.3367 169.358C30.0899 169.77 29.2672 172.157 29.3495 172.322C29.514 172.322 31.5707 170.758 31.8175 170.346L34.3677 166.148C33.8741 165.983 33.3805 165.819 32.5579 165.736Z" fill="#D4EAFF"/>
<path fill-rule="evenodd" clip-rule="evenodd" d="M113.183 185.824C112.114 185.742 111.044 185.495 110.057 185.166C108.247 184.507 105.286 183.519 104.216 183.19C103.969 183.108 103.723 183.026 103.476 182.861C101.831 182.12 95.4961 179.403 95.4961 179.403C95.4961 179.403 95.9074 179.074 96.3187 178.662C96.9769 178.168 97.7995 178.004 98.5399 178.251C100.021 178.745 102.406 179.65 103.723 180.062C104.216 180.227 104.792 180.391 105.368 180.391C106.355 180.474 108 180.638 108 180.638C108 180.638 104.71 178.992 103.065 178.251C102.489 177.922 101.913 177.592 101.419 177.181C100.35 176.275 98.3754 174.711 97.2236 173.723C96.6478 173.229 96.2365 172.488 96.3187 171.665C96.3187 170.842 96.401 169.772 96.4833 168.784C96.4833 168.372 96.7301 167.961 97.1414 167.714C97.5527 167.467 98.0463 167.467 98.3754 167.714C100.021 168.619 102.406 169.936 104.052 170.842C105.286 171.5 106.684 172.077 108.083 172.406C110.386 172.982 113.924 173.805 116.227 174.382C116.803 174.546 117.379 174.382 117.79 174.052C118.201 173.723 118.53 173.229 118.53 172.653C118.613 171.5 118.695 170.348 118.695 170.348L126.757 176.522C126.757 176.522 128.731 178.827 128.073 182.202C127.497 185.166 126.346 187.142 126.346 187.142C126.346 187.142 117.05 186.236 113.183 185.824Z" fill="#FFB8B8"/>
</g>
<path d="M207.944 54.8448C206.052 53.1984 203.502 52.3752 201.034 52.1282C198.566 51.7989 196.016 51.9636 193.548 52.3752C191.08 52.7045 188.612 53.1984 186.144 53.5277C183.676 53.7746 181.29 53.857 178.987 53.3631C176.683 52.8691 174.544 51.7989 172.57 50.3994C170.596 48.9999 168.786 47.3535 166.894 45.707C165.002 44.0606 163.11 42.3318 160.806 40.9324C160.23 40.6031 159.654 40.2738 159.078 39.9445C158.503 39.6152 157.762 39.3682 157.104 39.1213C156.364 38.8743 155.623 38.792 154.718 38.792C153.896 38.792 152.909 39.1213 152.086 39.6975L154.06 42.4142C154.307 42.2495 154.554 42.0849 154.883 42.0849C155.294 42.0026 155.706 42.0849 156.199 42.1672C156.693 42.2495 157.186 42.4142 157.68 42.6611C158.174 42.9081 158.749 43.1551 159.243 43.402C161.3 44.5545 163.192 46.0363 165.166 47.5181C167.141 49.0823 169.033 50.6464 171.254 52.0459C172.323 52.7044 173.475 53.363 174.709 53.857C175.367 54.1039 175.943 54.3509 176.601 54.5155C177.259 54.6802 177.835 54.8448 178.493 54.9271C181.126 55.3388 183.676 55.0918 186.144 54.6802C188.612 54.2686 191.08 53.61 193.465 53.116C195.851 52.6221 198.319 52.2928 200.787 52.4575C203.42 52.7044 205.888 53.363 207.944 54.8448Z" fill="#212122"/>
<path fill-rule="evenodd" clip-rule="evenodd" d="M158.914 91.1523C158.914 91.1523 155.294 95.8447 151.757 97.5734C147.973 99.4668 145.834 96.9972 145.834 96.9972L139.335 85.0605C139.335 85.0605 134.481 87.9417 132.342 86.213C129.627 84.1549 127.571 77.4868 127.077 76.005C126.995 75.8404 126.913 75.6757 126.666 75.6757C126.172 75.5934 125.021 75.2641 124.28 75.0994C123.869 75.0171 123.54 74.6055 123.622 74.1116C123.951 72.3005 124.774 67.8551 125.103 66.4556C125.103 66.3733 122.882 59.6229 124.28 55.0951C125.596 50.6497 129.216 48.3447 129.216 48.3447L147.561 47.5215L156.446 60.1991L155.623 76.8282L160.395 89.6705L158.914 91.1523Z" fill="#FFB8B8"/>
<mask id="mask7_1307_1542" style="mask-type:alpha" maskUnits="userSpaceOnUse" x="123" y="47" width="38" height="52">
<path fill-rule="evenodd" clip-rule="evenodd" d="M158.914 91.1523C158.914 91.1523 155.294 95.8447 151.757 97.5734C147.973 99.4668 145.834 96.9972 145.834 96.9972L139.335 85.0605C139.335 85.0605 134.481 87.9417 132.342 86.213C129.627 84.1549 127.571 77.4868 127.077 76.005C126.995 75.8404 126.913 75.6757 126.666 75.6757C126.172 75.5934 125.021 75.2641 124.28 75.0994C123.869 75.0171 123.54 74.6055 123.622 74.1116C123.951 72.3005 124.774 67.8551 125.103 66.4556C125.103 66.3733 122.882 59.6229 124.28 55.0951C125.596 50.6497 129.216 48.3447 129.216 48.3447L147.561 47.5215L156.446 60.1991L155.623 76.8282L160.395 89.6705L158.914 91.1523Z" fill="#FFB8B8"/>
</mask>
<g mask="url(#mask7_1307_1542)">
<path fill-rule="evenodd" clip-rule="evenodd" d="M130.117 85.9688C130.117 85.9688 133.655 89.6733 138.673 85.8042C143.691 82.0173 144.267 79.877 144.267 79.877C144.267 79.877 143.938 87.039 145.83 91.9783C148.462 99.0581 149.861 102.104 149.861 102.104L130.117 85.9688Z" fill="#FFB8B8"/>
<path fill-rule="evenodd" clip-rule="evenodd" d="M126.496 79.1333L127.812 81.109C127.812 81.109 129.293 80.7797 130.445 79.7918C132.008 78.557 132.501 77.0752 132.501 77.0752C132.501 77.0752 129.211 79.3802 126.496 79.1333Z" fill="#FAEDFE"/>
<path fill-rule="evenodd" clip-rule="evenodd" d="M132.781 77.1603L132.506 77.0688C132.781 77.1603 132.78 77.1604 132.78 77.1605L132.78 77.1608L132.78 77.1613L132.78 77.1629L132.778 77.1676L132.772 77.1834C132.768 77.1967 132.761 77.2154 132.752 77.239C132.733 77.2864 132.706 77.3538 132.669 77.4378C132.594 77.6057 132.478 77.8404 132.311 78.1144C131.979 78.661 131.445 79.3669 130.633 80.009C130.026 80.5286 129.339 80.8711 128.809 81.0833C128.542 81.19 128.312 81.2649 128.148 81.3134C128.066 81.3376 128 81.3553 127.954 81.367C127.931 81.3729 127.913 81.3773 127.901 81.3803L127.886 81.3837L127.882 81.3847L127.88 81.385L127.88 81.3851L127.88 81.3852C127.88 81.3852 127.88 81.3852 127.817 81.1026L127.88 81.3852C127.763 81.4112 127.642 81.3626 127.576 81.2631L126.26 79.2874C126.198 79.1946 126.195 79.0746 126.252 78.9788C126.309 78.883 126.416 78.8284 126.527 78.8385C127.805 78.9548 129.248 78.4681 130.398 77.9284C130.968 77.661 131.455 77.3857 131.799 77.1774C131.972 77.0733 132.108 76.9861 132.2 76.9253C132.247 76.895 132.282 76.8712 132.306 76.8552L132.332 76.8371L132.338 76.8328L132.34 76.8318L132.34 76.8317L132.34 76.8317L132.34 76.8316C132.442 76.76 132.579 76.7621 132.679 76.8367C132.779 76.9114 132.82 77.0418 132.781 77.1603ZM127.943 80.77C127.956 80.7662 127.97 80.7622 127.984 80.758C128.134 80.7138 128.346 80.6447 128.593 80.5457C129.09 80.3467 129.717 80.0318 130.261 79.5657L130.27 79.5583C130.999 78.9823 131.485 78.3503 131.791 77.8541C131.473 78.037 131.083 78.2468 130.644 78.4525C129.626 78.9303 128.319 79.4015 127.052 79.4332L127.943 80.77Z" fill="#DE1414"/>
</g>
<path fill-rule="evenodd" clip-rule="evenodd" d="M165.325 46.1227C153.479 29.9875 137.602 34.9269 133.571 36.0794C120.82 39.7839 119.174 51.9676 119.257 58.3064C119.257 59.2943 119.75 60.2821 120.491 60.9407C121.231 61.5993 122.218 61.9286 123.288 61.8463C124.851 61.6816 126.907 61.4347 128.964 61.0231C131.267 60.6114 133.571 59.6236 135.463 59.3766C135.874 59.2943 134.311 58.0594 133.406 56.9069C132.09 55.2605 131.185 53.1201 131.185 53.1201C131.185 53.1201 132.337 56.3307 138.589 59.2943C140.399 60.1998 142.373 63.9866 142.373 63.9866C142.373 63.9866 144.924 59.7059 147.721 61.8463C148.708 62.5872 149.037 64.2336 148.79 65.5508C148.296 68.679 145.335 68.432 145.335 68.5144C146.569 74.4416 147.721 77.8168 150.6 82.0152C155.453 88.9303 159.484 91.2353 159.484 91.2353C159.484 91.2353 164.256 92.7995 169.11 96.5863C176.102 101.937 181.614 111.569 181.614 111.569C181.614 111.569 183.753 111.075 186.467 110.087C189.182 109.099 191.568 108.111 191.568 108.111C191.568 108.111 187.619 104.407 185.974 103.007C184.329 101.608 179.886 98.2327 179.886 98.2327C179.886 98.2327 186.221 101.526 188.277 102.349C190.334 103.172 196.339 104.654 196.339 104.654C196.339 104.654 198.725 103.172 199.712 102.266C203.332 98.8913 209.337 94.4459 211.805 84.5672C211.888 84.1556 208.35 86.8722 202.921 87.4485C192.637 88.848 181.861 82.2622 181.861 82.2622C181.861 82.2622 196.175 87.3662 205.635 81.5213C211.723 77.7344 213.862 74.4416 213.862 74.4416C213.862 74.4416 214.191 72.7128 214.191 71.8073C213.451 47.7691 195.27 54.108 187.701 56.3307C177.254 59.2943 168.205 50.1565 165.325 46.1227Z" fill="#212122"/>
<mask id="mask8_1307_1542" style="mask-type:alpha" maskUnits="userSpaceOnUse" x="119" y="34" width="96" height="78">
<path fill-rule="evenodd" clip-rule="evenodd" d="M165.325 46.1227C153.479 29.9875 137.602 34.9269 133.571 36.0794C120.82 39.7839 119.174 51.9676 119.257 58.3064C119.257 59.2943 119.75 60.2821 120.491 60.9407C121.231 61.5993 122.218 61.9286 123.288 61.8463C124.851 61.6816 126.907 61.4347 128.964 61.0231C131.267 60.6114 133.571 59.6236 135.463 59.3766C135.874 59.2943 134.311 58.0594 133.406 56.9069C132.09 55.2605 131.185 53.1201 131.185 53.1201C131.185 53.1201 132.337 56.3307 138.589 59.2943C140.399 60.1998 142.373 63.9866 142.373 63.9866C142.373 63.9866 144.924 59.7059 147.721 61.8463C148.708 62.5872 149.037 64.2336 148.79 65.5508C148.296 68.679 145.335 68.432 145.335 68.5144C146.569 74.4416 147.721 77.8168 150.6 82.0152C155.453 88.9303 159.484 91.2353 159.484 91.2353C159.484 91.2353 164.256 92.7995 169.11 96.5863C176.102 101.937 181.614 111.569 181.614 111.569C181.614 111.569 183.753 111.075 186.467 110.087C189.182 109.099 191.568 108.111 191.568 108.111C191.568 108.111 187.619 104.407 185.974 103.007C184.329 101.608 179.886 98.2327 179.886 98.2327C179.886 98.2327 186.221 101.526 188.277 102.349C190.334 103.172 196.339 104.654 196.339 104.654C196.339 104.654 198.725 103.172 199.712 102.266C203.332 98.8913 209.337 94.4459 211.805 84.5672C211.888 84.1556 208.35 86.8722 202.921 87.4485C192.637 88.848 181.861 82.2622 181.861 82.2622C181.861 82.2622 196.175 87.3662 205.635 81.5213C211.723 77.7344 213.862 74.4416 213.862 74.4416C213.862 74.4416 214.191 72.7128 214.191 71.8073C213.451 47.7691 195.27 54.108 187.701 56.3307C177.254 59.2943 168.205 50.1565 165.325 46.1227Z" fill="#212122"/>
</mask>
<g mask="url(#mask8_1307_1542)">
<mask id="mask9_1307_1542" style="mask-type:alpha" maskUnits="userSpaceOnUse" x="119" y="33" width="96" height="79">
<path fill-rule="evenodd" clip-rule="evenodd" d="M165.536 45.608C153.69 29.4729 137.813 34.4122 133.782 35.5647C121.031 39.2692 119.385 51.453 119.468 57.7918C119.468 58.7796 119.961 59.7675 120.702 60.4261C121.442 61.0846 122.429 61.414 123.499 61.3316C125.062 61.167 127.118 60.92 129.175 60.5084C131.478 60.0968 133.782 59.1089 135.674 58.862C136.085 58.7796 134.522 57.5448 133.617 56.3923C132.301 54.7458 131.396 52.6054 131.396 52.6054C131.396 52.6054 132.548 55.816 138.8 58.7796C140.61 59.6852 142.584 63.472 142.584 63.472C142.584 63.472 145.134 59.1913 147.931 61.3316C148.919 62.0725 149.248 63.719 149.001 65.0361C148.507 68.1644 145.546 67.9174 145.546 67.9997C146.78 73.9269 147.931 77.3022 150.811 81.5006C155.664 88.4157 159.695 90.7207 159.695 90.7207C159.695 90.7207 164.467 92.2848 169.32 96.0717C176.313 101.423 181.825 111.054 181.825 111.054C181.825 111.054 183.964 110.56 186.678 109.572C189.393 108.585 191.779 107.597 191.779 107.597C191.779 107.597 187.83 103.892 186.185 102.493C184.54 101.093 180.097 97.7181 180.097 97.7181C180.097 97.7181 186.432 101.011 188.488 101.834C190.545 102.657 196.55 104.139 196.55 104.139C196.55 104.139 198.936 102.657 199.923 101.752C203.543 98.3766 209.548 93.9312 212.016 84.0526C212.098 83.641 208.561 86.3576 203.132 86.9338C192.848 88.3333 182.072 81.7476 182.072 81.7476C182.072 81.7476 196.386 86.8515 205.846 81.0066C211.934 77.2198 214.073 73.9269 214.073 73.9269C214.073 73.9269 214.402 72.1982 214.402 71.2926C213.661 47.2545 195.481 53.5933 187.912 55.816C177.465 58.7796 168.416 49.6418 165.536 45.608Z" fill="#7945C1"/>
</mask>
<g mask="url(#mask9_1307_1542)">
<path opacity="0.2" fill-rule="evenodd" clip-rule="evenodd" d="M143.212 29.3784C143.354 29.4512 143.411 29.6256 143.338 29.768C142.44 31.5268 142.442 34.3439 143.185 37.1881C143.927 40.0233 145.384 42.8044 147.302 44.4832C148.063 45.1476 149.403 45.7675 151.153 46.5449C151.274 46.5985 151.396 46.6527 151.52 46.7077C153.176 47.4423 155.13 48.3089 157.176 49.4603C161.581 51.9388 166.423 55.7426 169.747 62.4364L169.747 62.4367C174.388 71.8078 185.075 78.6704 195.024 79.8947C200.928 80.587 206.546 79.2592 210.496 75.2656C213.321 72.4097 215.322 68.1627 215.948 62.246C215.421 63.4011 214.842 64.5548 214.191 65.6556C212.852 67.9195 211.2 69.9774 209.051 71.3692C209.05 71.3693 209.05 71.3695 209.05 71.3697L208.892 71.1267L209.051 71.3687C209.051 71.3688 209.051 71.369 209.051 71.3692C207.696 72.2584 205.358 73.1527 202.997 73.8234C200.634 74.4946 198.197 74.9561 196.635 74.9561L196.631 74.9561C190.035 74.8725 186.106 72.4369 180.824 68.2248L180.822 68.2235C177.78 65.7627 175.618 62.5347 173.503 59.3395L173.383 59.1581C171.301 56.0122 169.25 52.9123 166.421 50.5202L166.417 50.5165L166.417 50.5164C164.395 48.7362 162.046 47.5189 159.526 46.7055L159.526 46.7054C158.964 46.523 158.385 46.3495 157.801 46.1744C156.83 45.8834 155.844 45.5881 154.898 45.2405C153.37 44.6787 151.894 43.9642 150.623 42.8619L150.62 42.8592L150.62 42.8592C149.053 41.4608 148.127 39.8113 147.448 38.0769C147.023 36.9898 146.688 35.8464 146.356 34.7127C146.164 34.0583 145.973 33.4071 145.766 32.7717C145.717 32.6197 145.8 32.4563 145.952 32.4069C146.104 32.3574 146.267 32.4405 146.317 32.5926C146.535 33.2641 146.73 33.9307 146.924 34.5906C147.249 35.7034 147.569 36.7976 147.987 37.8659C148.645 39.5472 149.528 41.1078 151.004 42.4258C151.004 42.4254 151.003 42.4249 151.003 42.4245L150.813 42.6432L151.006 42.4272C151.005 42.4267 151.005 42.4263 151.004 42.4258C152.201 43.4631 153.604 44.1477 155.098 44.697C156.032 45.0403 156.982 45.3246 157.937 45.6105C158.525 45.7865 159.115 45.9631 159.704 46.1545L159.615 46.43L159.705 46.1546C159.705 46.1546 159.705 46.1545 159.704 46.1545M166.797 50.0799C169.689 52.526 171.78 55.6857 173.847 58.8095C173.893 58.8796 173.94 58.9498 173.986 59.0199C176.107 62.2247 178.223 65.3763 181.185 67.7724C186.432 71.9566 190.236 74.2955 196.637 74.3771C198.118 74.3767 200.493 73.9327 202.839 73.2664C205.187 72.5995 207.455 71.724 208.733 70.8847L208.735 70.8837C210.781 69.5588 212.378 67.5831 213.692 65.3608C214.616 63.7984 215.395 62.1229 216.091 60.4789C216.198 58.5947 216.175 56.5559 216.008 54.355C215.995 54.1955 216.115 54.0564 216.274 54.0443C216.434 54.0321 216.573 54.1515 216.585 54.3109C216.709 55.9353 216.755 57.4754 216.728 58.9336C216.797 58.7628 216.865 58.5928 216.932 58.4239C216.992 58.2754 217.16 58.2032 217.309 58.2625C217.457 58.3219 217.529 58.4904 217.47 58.6388C217.213 59.2822 216.945 59.9437 216.663 60.6129C216.252 67.5112 214.116 72.4301 210.908 75.6728C206.797 79.8288 200.981 81.1765 194.956 80.4697L194.954 80.4695C184.831 79.224 173.964 72.2565 169.228 62.6937C165.97 56.1338 161.229 52.4052 156.892 49.9649C154.871 48.8275 152.941 47.9713 151.282 47.2358C151.159 47.1812 151.038 47.1273 150.918 47.074C149.199 46.3105 147.763 45.6544 146.921 44.9194L146.92 44.9191C144.889 43.1403 143.385 40.2412 142.625 37.3346C141.867 34.4368 141.828 31.4502 142.822 29.5046C142.895 29.3622 143.069 29.3057 143.212 29.3784M138.157 30.3349C138.316 30.3418 138.44 30.4769 138.433 30.6367C138.415 31.0497 138.303 31.5176 138.177 32.0422C138.148 32.1637 138.118 32.2883 138.088 32.4159C137.927 33.11 137.758 33.9457 137.703 35.0023C137.593 37.1134 137.932 40.1378 139.729 44.6757C140.768 47.2328 142.708 49.044 145.006 50.5293C146.63 51.5794 148.408 52.4528 150.159 53.3128C150.897 53.6752 151.63 54.0352 152.345 54.4051L152.347 54.4064C155.163 55.8984 157.679 57.655 159.527 60.4289L159.529 60.4321L159.529 60.4321C161.016 62.7277 162.289 65.6672 163.591 68.6724C163.961 69.5257 164.333 70.3843 164.713 71.235C166.441 75.1055 168.334 78.8222 170.921 81.2893C174.11 84.3171 180.579 89.2744 187.952 92.2726C195.33 95.2731 203.54 96.2846 210.289 91.5525C210.42 91.4607 210.601 91.4925 210.692 91.6234C210.784 91.7543 210.753 91.9349 210.622 92.0267C203.633 96.9263 195.184 95.8386 187.734 92.809C180.278 89.7771 173.749 84.7734 170.522 81.7093L170.521 81.7088C167.843 79.1543 165.911 75.3388 164.184 71.4711C163.797 70.603 163.419 69.7327 163.046 68.8723C161.748 65.8762 160.501 62.9993 159.044 60.7484C157.273 58.0904 154.854 56.3899 152.077 54.9188C151.386 54.5612 150.668 54.208 149.938 53.8495C148.174 52.9831 146.346 52.0851 144.692 51.0156C142.342 49.4965 140.293 47.6034 139.192 44.8924L139.191 44.8902C137.369 40.291 137.009 37.1827 137.125 34.9721C137.183 33.8678 137.359 32.9953 137.524 32.2848C137.557 32.1418 137.59 32.0072 137.62 31.88C137.744 31.361 137.84 30.9634 137.855 30.6115C137.862 30.4518 137.997 30.3279 138.157 30.3349ZM149.054 31.0375C149.067 30.9921 149.092 30.9492 149.127 30.9134C149.134 30.9066 149.149 30.892 149.167 30.878L149.167 30.8779C149.174 30.8727 149.198 30.8539 149.234 30.8389C149.25 30.8317 149.291 30.816 149.345 30.8154C149.408 30.8149 149.498 30.8361 149.567 30.9146C149.627 30.9832 149.636 31.0574 149.638 31.0903C149.64 31.1262 149.635 31.1544 149.632 31.1681C149.626 31.196 149.617 31.2172 149.614 31.2246C149.606 31.2426 149.598 31.2579 149.594 31.2651C149.581 31.2871 149.56 31.3206 149.542 31.3502C149.536 31.3587 149.531 31.3669 149.526 31.3743C149.501 31.4151 149.477 31.4539 149.461 31.4853C149.46 31.487 149.459 31.4886 149.458 31.4901C149.462 31.5807 149.477 31.6891 149.495 31.818L149.497 31.8292C149.515 31.9564 149.537 32.1057 149.539 32.2426C149.698 33.0908 150.085 33.8699 150.495 34.6913C151.705 37.0319 153.482 38.9727 155.668 40.5127C157.31 41.6627 159.093 42.7953 160.945 43.4399C161.943 43.7866 162.943 44.0726 163.94 44.3517C164.05 44.3824 164.16 44.4131 164.27 44.4437C165.154 44.6907 166.037 44.937 166.903 45.2182C168.853 45.8515 170.743 46.6682 172.469 48.1006L172.472 48.1028C175.234 50.4502 177.255 53.4502 179.253 56.4159C179.454 56.7142 179.655 57.0121 179.856 57.309C182.067 60.5715 184.343 63.7177 187.665 65.9469L187.665 65.9471C192.835 69.423 199.305 69.5915 204.981 66.8329C210.067 64.328 213.061 58.6419 210.282 53.3983C210.207 53.2571 210.261 53.0818 210.402 53.007C210.543 52.9321 210.719 52.9859 210.793 53.1272C213.773 58.75 210.515 64.7534 205.236 67.3527L205.235 67.3533C199.394 70.1923 192.702 70.0312 187.342 66.4276C183.917 64.1292 181.587 60.8954 179.376 57.6339C179.176 57.338 178.976 57.042 178.777 56.7463C176.771 53.7702 174.795 50.8377 172.098 48.5451C170.452 47.1793 168.64 46.391 166.724 45.769C165.87 45.4917 165 45.2488 164.114 45.0014C164.004 44.9708 163.894 44.9401 163.784 44.9093C162.787 44.6301 161.771 44.3399 160.754 43.9869L160.754 43.9868C158.822 43.3143 156.985 42.1419 155.336 40.9869L155.335 40.9865C153.081 39.3986 151.238 37.3887 149.98 34.9555L149.978 34.952L149.978 34.952L149.97 34.9346C149.564 34.1231 149.137 33.2686 148.965 32.3223C148.962 32.3052 148.96 32.2879 148.96 32.2706C148.96 32.1718 148.944 32.0498 148.922 31.8999L148.921 31.8888C148.901 31.7529 148.878 31.5916 148.878 31.4473C148.878 31.3795 148.9 31.3226 148.909 31.3001C148.921 31.2691 148.936 31.2391 148.949 31.2138C148.976 31.1629 149.009 31.1091 149.035 31.0676C149.042 31.0563 149.049 31.0464 149.054 31.0375ZM149.448 31.5123C149.448 31.512 149.448 31.5115 149.448 31.5109C149.447 31.5152 149.446 31.5159 149.448 31.5123ZM140.707 32.0794C140.858 32.1319 140.938 32.2969 140.886 32.4479C140.255 34.261 140.324 36.9475 141.388 39.8262C142.449 42.6979 144.493 45.7398 147.781 48.2582L147.782 48.2596C149.566 49.6474 151.573 50.6162 153.601 51.5945C154.065 51.8184 154.53 52.0428 154.993 52.2728C157.468 53.5005 159.881 54.8817 161.733 57.1973C162.819 58.5354 163.693 60.0151 164.498 61.5233C164.842 62.1673 165.17 62.8096 165.496 63.4489C165.942 64.322 166.385 65.1893 166.861 66.0468M147.428 48.7172C144.053 46.1317 141.943 42.9998 140.844 40.0269C139.749 37.0607 139.653 34.2316 140.339 32.2578C140.391 32.1068 140.556 32.0269 140.707 32.0794M133.838 32.1795C133.979 32.2546 134.033 32.4298 133.958 32.5711C130.74 38.6274 132.755 43.9498 133.462 45.8149C133.499 45.9142 133.533 46.0037 133.562 46.083L133.562 46.0834C135.353 50.9708 138.116 54.7111 142.266 57.8051C145.151 59.9498 147.906 62.2837 149.747 65.4654C151.278 68.0776 152.3 70.8672 153.308 73.6201C153.502 74.1496 153.695 74.6778 153.892 75.2032C155.114 78.4709 156.457 81.6426 158.769 84.4432L158.769 84.4435C161.994 88.3597 166.135 91.1871 170.387 94.0906C171.68 94.9733 172.983 95.863 174.274 96.7924C179.793 100.767 185.03 105.439 188.021 113.338C188.078 113.487 188.002 113.654 187.853 113.711C187.703 113.768 187.536 113.692 187.479 113.543C184.547 105.8 179.418 101.211 173.935 97.2623C172.672 96.3528 171.387 95.4757 170.105 94.6006C165.839 91.688 161.605 88.7978 158.323 84.8119C155.946 81.9322 154.575 78.6828 153.349 75.406C153.15 74.873 152.955 74.3397 152.759 73.8071C151.751 71.0541 150.75 68.321 149.247 65.7575L149.246 65.7561C147.467 62.6817 144.793 60.4057 141.92 58.2698L141.92 58.2696C137.678 55.1071 134.848 51.274 133.019 46.2829C133.019 46.2828 133.019 46.2827 133.019 46.2826L133.29 46.1832L133.019 46.2831C133.019 46.283 133.019 46.283 133.019 46.2829C132.99 46.2039 132.956 46.1141 132.918 46.0138C132.205 44.1339 130.103 38.5917 133.446 32.2994C133.521 32.1582 133.696 32.1045 133.838 32.1795ZM134.838 32.8066C134.864 32.8081 134.891 32.8059 134.917 32.8C134.893 32.8057 134.866 32.8085 134.838 32.8066ZM134.572 32.5862C134.549 32.4913 134.575 32.387 134.649 32.3129C134.685 32.2765 134.805 32.1849 134.963 32.2482C135.073 32.2922 135.114 32.3843 135.121 32.3995L135.121 32.4004C135.141 32.4446 135.146 32.4861 135.147 32.4945L135.147 32.4955C135.15 32.5238 135.151 32.5555 135.151 32.5803C135.152 32.6352 135.15 32.7139 135.147 32.8096C135.141 32.9749 135.131 33.2058 135.118 33.486C135.116 33.5331 135.114 33.5816 135.112 33.6314C135.081 34.3257 135.04 35.2848 135.02 36.3306C134.978 38.4385 135.022 40.8444 135.38 42.1554L135.38 42.1581L135.38 42.1581C137.079 48.6352 141.195 51.5475 144.56 53.847L144.561 53.8478C144.859 54.054 145.152 54.2549 145.439 54.4521C148.469 56.532 150.907 58.2052 153.267 61.4054L153.268 61.4064C154.98 63.7466 156.39 67.0948 157.685 70.4567C157.977 71.2163 158.264 71.9765 158.547 72.7269C159.523 75.3159 160.455 77.7887 161.437 79.7217C162.643 82.0963 165.213 84.9055 168.653 87.6345C172.087 90.3588 176.367 92.9854 180.966 95.0026C190.186 99.0461 200.594 100.602 208.077 95.7452C208.211 95.6581 208.39 95.6963 208.477 95.8304C208.564 95.9645 208.526 96.1438 208.392 96.2309C200.655 101.253 190.003 99.598 180.734 95.5329C176.089 93.4957 171.766 90.8433 168.293 88.0881C164.826 85.3375 162.182 82.4665 160.92 79.984L160.92 79.984C159.923 78.0198 158.975 75.5047 157.997 72.9097C157.716 72.1643 157.432 71.4122 157.145 70.6648C155.848 67.2969 154.461 64.0183 152.801 61.7485C150.5 58.6301 148.14 57.009 145.104 54.9244C144.82 54.7291 144.529 54.5297 144.232 54.3247C140.852 52.0142 136.577 48.9996 134.821 42.3063C134.438 40.9005 134.4 38.4091 134.441 36.3193C134.461 35.2659 134.503 34.3007 134.533 33.6058C134.536 33.5555 134.538 33.5067 134.54 33.4594C134.552 33.1789 134.563 32.9519 134.568 32.7901C134.571 32.6949 134.573 32.6273 134.572 32.5862ZM130.46 33.2225C130.43 33.3227 130.396 33.4375 130.356 33.567L130.341 33.6185C130.088 34.4539 129.676 35.8188 129.316 37.5097C128.582 40.9551 128.056 45.7904 129.561 50.3083L129.561 50.3095C131.469 55.9556 133.978 59.6518 139.166 62.2478C139.309 62.3194 139.483 62.2615 139.555 62.1185C139.626 61.9755 139.568 61.8015 139.425 61.73C134.413 59.2222 131.986 55.6742 130.11 50.1248C128.653 45.7521 129.156 41.0382 129.882 37.6304C130.237 35.9633 130.644 34.6175 130.896 33.784L130.911 33.7345C130.973 33.5278 131.026 33.3516 131.065 33.2126C131.102 33.0805 131.133 32.9601 131.143 32.8757C131.146 32.8532 131.148 32.8224 131.146 32.7891C131.145 32.7667 131.139 32.6903 131.086 32.617C131.055 32.5735 131.006 32.5305 130.938 32.508C130.872 32.4863 130.812 32.4915 130.77 32.5017C130.698 32.5196 130.649 32.56 130.632 32.5747C130.589 32.6108 130.552 32.658 130.524 32.696C130.492 32.7389 130.456 32.7919 130.415 32.8534C130.338 32.9728 130.359 33.1283 130.46 33.2225ZM129.887 33.6417C129.993 33.761 129.983 33.944 129.864 34.0506C124.547 38.8026 122.949 44.3975 123.04 49.3265C123.131 54.2671 124.921 58.5316 126.368 60.585C126.747 61.1004 127.298 61.2516 127.994 61.3745C128.068 61.3876 128.144 61.4004 128.221 61.4134C128.844 61.5177 129.562 61.6381 130.171 62.0848C130.173 62.086 130.174 62.0872 130.176 62.0883C130.178 62.0896 130.179 62.0909 130.181 62.0922C130.575 62.4076 130.97 62.6453 131.383 62.8932C131.398 62.9025 131.413 62.9131 131.426 62.925C131.43 62.9266 131.45 62.9351 131.495 62.9458C131.542 62.9566 131.584 62.9637 131.634 62.972C131.665 62.9773 131.7 62.9831 131.74 62.9907C131.784 62.999 131.835 63.0096 131.883 63.0243C131.929 63.0381 131.992 63.0611 132.051 63.1032C132.114 63.1484 132.19 63.231 132.205 63.3584C132.219 63.4762 132.173 63.5718 132.133 63.6312C132.044 63.7643 131.865 63.8003 131.731 63.7117C131.674 63.6733 131.634 63.6179 131.615 63.5566C131.6 63.5539 131.583 63.551 131.564 63.5478C131.503 63.5373 131.425 63.5241 131.363 63.5095C131.289 63.4921 131.163 63.4586 131.062 63.3761C130.661 63.1352 130.243 62.8831 129.824 62.5482C129.334 62.191 128.76 62.093 128.125 61.9847C128.048 61.9717 127.971 61.9585 127.893 61.9447C127.191 61.8209 126.426 61.643 125.9 60.9252L125.897 60.921L125.897 60.921C124.383 58.7751 122.554 54.3971 122.461 49.3372C122.367 44.2641 124.018 38.4985 129.478 33.6188C129.597 33.5123 129.78 33.5225 129.887 33.6417ZM129.581 35.4831C129.671 35.6153 129.637 35.7954 129.505 35.8853C127.914 36.9658 126.906 38.7005 126.369 40.7872C125.831 42.8743 125.771 45.2932 126.061 47.7023C126.351 50.11 126.989 52.4942 127.839 54.5073C128.69 56.5269 129.742 58.1448 130.842 59.0486L130.845 59.0509C131.398 59.5173 132.177 60.2399 133.02 61.0222C133.377 61.3533 133.746 61.6952 134.114 62.0329C135.363 63.1797 136.599 64.2728 137.397 64.7922C137.531 64.8793 137.569 65.0587 137.482 65.1927C137.395 65.3268 137.215 65.3647 137.081 65.2776C136.234 64.7267 134.961 63.5971 133.722 62.4595C133.346 62.1142 132.972 61.7676 132.613 61.434C131.776 60.6579 131.015 59.9519 130.473 59.4948C129.27 58.5051 128.173 56.7895 127.305 54.7323C126.434 52.6678 125.782 50.231 125.486 47.7715C125.19 45.3132 125.248 42.8185 125.808 40.6428C126.368 38.4668 127.438 36.5896 129.179 35.4063C129.311 35.3164 129.491 35.3508 129.581 35.4831ZM182.884 50.3713C182.894 50.3872 182.902 50.4035 182.909 50.4167C182.933 50.465 182.942 50.5167 182.939 50.5669C182.941 50.5758 182.944 50.5851 182.947 50.5948C182.987 50.7247 183.047 50.9064 183.089 51.0309C183.093 51.0423 183.096 51.0539 183.098 51.0656C183.172 51.4342 183.319 51.7313 183.485 52.0631C183.487 52.0682 183.489 52.0734 183.492 52.0786C183.976 53.21 184.624 54.3451 185.355 55.4016C187.54 58.479 190.701 60.8322 194.271 62.2128L194.272 62.2132C197.052 63.3017 200.413 63.4395 203.147 62.4374C205.866 61.441 207.956 59.3248 208.275 55.8741C208.355 54.6664 208.274 53.5494 207.956 52.4367C207.912 52.2829 208.001 52.1227 208.155 52.0788C208.308 52.0349 208.469 52.124 208.513 52.2777C208.853 53.4688 208.936 54.6557 208.852 55.9163L208.852 55.9235L208.852 55.9235C208.511 59.6328 206.242 61.9197 203.347 62.9811C200.466 64.0369 196.958 63.8867 194.062 62.7527C190.394 61.3344 187.138 58.9137 184.882 55.7354L184.88 55.7325C184.132 54.6515 183.465 53.4848 182.963 52.3144L182.961 52.3114C182.802 51.9918 182.625 51.6385 182.534 51.1972C182.493 51.0748 182.434 50.8966 182.394 50.765C182.374 50.7019 182.353 50.6318 182.345 50.5861L182.345 50.5853C182.343 50.5765 182.337 50.5455 182.338 50.5096C182.338 50.4985 182.339 50.4797 182.344 50.457C182.348 50.4374 182.358 50.3944 182.39 50.3491C182.426 50.2966 182.492 50.2398 182.589 50.2264C182.675 50.2146 182.739 50.2434 182.769 50.2598C182.822 50.2889 182.853 50.3279 182.859 50.336L182.86 50.3367C182.871 50.3508 182.879 50.3636 182.884 50.3713Z" fill="#767676"/>
</g>
</g>
<path fill-rule="evenodd" clip-rule="evenodd" d="M129.627 67.775C130.038 67.6926 130.285 67.281 130.203 66.8694C130.121 66.4578 129.709 66.2108 129.298 66.2931C128.969 66.3754 128.558 66.4578 128.146 66.5401C127.735 66.6224 127.488 67.034 127.57 67.4457C127.653 67.8573 128.064 68.1042 128.475 68.0219C128.887 67.9396 129.298 67.775 129.627 67.775Z" fill="#4C277E"/>
<path d="M213.952 80.4532C211.402 81.935 208.769 83.2522 205.972 84.2401C203.257 85.2279 200.378 85.7219 197.499 85.7219C194.62 85.7219 191.905 85.0633 189.272 83.9931C186.64 82.9229 184.172 81.4411 181.786 79.877L180.059 82.7582C182.691 84.1577 185.488 85.4749 188.45 86.3804C191.411 87.286 194.537 87.6976 197.581 87.3683C200.625 87.1213 203.586 86.2158 206.301 84.9809C209.016 83.7461 211.566 82.0997 213.952 80.4532Z" fill="#212122"/>
<path d="M155.129 91.9734C152.003 89.0921 150.111 85.1406 149.289 81.1892C148.384 77.1554 148.384 72.9569 148.713 68.8408H145.34C145.587 73.2039 146.163 77.567 147.643 81.6831C149.124 85.7169 151.674 89.5037 155.129 91.9734Z" fill="#212122"/>
<path d="M131.767 64.7312C130.862 64.4019 129.957 63.9902 128.887 63.9902C127.818 63.9902 126.831 64.3195 125.926 64.6488L126.255 65.3897C127.078 64.8958 127.9 64.4842 128.887 64.4018C129.875 64.3195 130.862 64.4842 131.767 64.7312Z" fill="#4C277E"/>
</svg>
